<?xml version="1.0" standalone="no"?>
<!DOCTYPE svg PUBLIC "-//W3C//DTD SVG 20010904//EN"
 "http://www.w3.org/TR/2001/REC-SVG-20010904/DTD/svg10.dtd">
<svg version="1.0" xmlns="http://www.w3.org/2000/svg"
 width="1080.000000pt" height="1299.000000pt" viewBox="0 0 1080.000000 1299.000000"
 preserveAspectRatio="xMidYMid meet">

<g transform="translate(0.000000,1299.000000) scale(0.100000,-0.100000)"
fill="#000000" stroke="none">
<path d="M5295 12873 c-96 -92 -236 -229 -682 -665 -111 -109 -207 -198 -212
-198 -5 0 -42 12 -83 26 -40 14 -84 28 -98 31 -14 2 -34 8 -45 13 -20 9 -218
74 -445 146 -63 20 -137 45 -165 54 -82 29 -395 130 -404 130 -7 0 -58 -115
-165 -375 -7 -16 -28 -64 -45 -105 -18 -41 -35 -84 -38 -95 -2 -11 -8 -29 -13
-40 -4 -11 -15 -39 -24 -62 -15 -41 -35 -87 -81 -188 -13 -27 -37 -86 -55
-130 -17 -44 -42 -102 -55 -130 -12 -27 -26 -61 -29 -75 -7 -22 -21 -56 -60
-139 -16 -35 -49 -53 -108 -57 -29 -3 -75 -9 -103 -15 -74 -16 -159 -28 -255
-39 -47 -4 -122 -18 -167 -31 -72 -19 -82 -25 -86 -48 -3 -14 -1 -33 4 -42 9
-17 -16 -49 -39 -49 -16 0 -52 -73 -52 -104 0 -29 -19 -45 -30 -26 -15 24 -30
0 -24 -39 6 -39 -16 -91 -39 -91 -5 0 -21 -12 -35 -27 -22 -24 -26 -40 -30
-104 -5 -87 -2 -96 52 -138 32 -26 48 -31 92 -31 30 0 54 4 54 10 0 5 3 9 7 9
24 -4 39 4 48 24 6 12 21 24 35 25 13 2 29 11 36 20 7 9 19 13 33 9 17 -4 25
0 33 19 8 17 18 24 33 22 12 -1 33 5 48 15 14 9 31 17 36 17 5 0 16 6 23 14 8
7 33 23 55 35 23 11 45 25 48 31 4 6 15 8 26 5 10 -4 19 -3 19 2 0 5 14 14 30
20 26 10 30 17 30 46 0 28 5 37 21 42 12 4 24 2 28 -3 8 -13 25 -3 34 21 3 9
16 17 27 17 11 0 23 7 26 15 4 8 17 15 30 15 13 0 37 14 54 30 17 17 35 31 40
31 6 1 15 2 21 3 7 0 15 8 18 18 7 20 104 88 125 88 9 0 20 9 26 20 6 11 21
20 35 20 18 0 26 8 35 35 12 36 24 44 34 23 3 -10 8 -9 18 3 7 8 20 19 28 23
41 19 164 108 174 125 4 5 24 12 46 16 39 7 52 19 28 27 -6 2 -8 10 -4 17 6 9
11 9 23 -1 13 -10 19 -8 37 13 22 25 65 35 148 32 45 -1 152 -59 144 -78 -3
-8 2 -19 10 -25 8 -8 14 -30 14 -56 0 -44 -15 -68 -26 -40 -10 27 -21 18 -27
-21 -4 -21 -14 -48 -22 -60 -16 -23 -55 -32 -55 -13 0 6 -11 3 -25 -6 -14 -9
-25 -23 -25 -32 0 -14 -27 -41 -42 -42 -5 0 -8 7 -8 15 0 8 -4 15 -10 15 -5 0
-10 -17 -10 -39 0 -38 -22 -72 -34 -52 -9 15 -33 3 -39 -19 -4 -16 -10 -18
-36 -10 -22 6 -33 5 -38 -4 -5 -7 -18 -19 -31 -25 -15 -8 -22 -20 -20 -33 2
-12 -3 -23 -10 -26 -8 -2 -12 2 -10 13 5 30 -19 28 -33 -3 -9 -21 -18 -28 -33
-25 -16 3 -24 -4 -35 -27 -10 -24 -11 -34 -2 -39 17 -11 -22 -43 -43 -35 -11
4 -16 1 -16 -11 0 -12 5 -15 16 -11 28 11 36 -5 13 -27 -15 -14 -24 -17 -27
-9 -6 18 -30 15 -34 -4 -2 -9 -19 -22 -38 -28 -27 -9 -36 -17 -38 -39 -5 -39
-34 -52 -65 -27 -25 20 -39 18 -31 -4 3 -7 -2 -19 -11 -26 -8 -7 -15 -21 -15
-31 0 -16 -3 -17 -25 -7 -27 12 -48 3 -26 -12 25 -15 -37 -62 -76 -58 -17 2
-29 0 -27 -4 3 -4 -4 -8 -15 -8 -10 0 -21 -6 -24 -12 -3 -10 -10 -8 -24 5 -18
16 -21 16 -26 2 -4 -8 -2 -15 3 -15 6 0 10 -8 10 -17 0 -13 -3 -14 -12 -5 -20
20 -31 13 -25 -17 5 -23 1 -32 -23 -50 -16 -11 -36 -21 -44 -21 -8 0 -18 -5
-21 -11 -4 -6 -13 -8 -20 -5 -7 2 -15 -5 -19 -17 -5 -21 -6 -21 -19 -3 -11 15
-16 16 -22 6 -5 -8 -2 -18 8 -25 14 -10 12 -14 -14 -36 -20 -16 -39 -23 -62
-21 -19 2 -27 0 -20 -6 19 -13 -21 -42 -58 -42 -23 0 -32 -5 -36 -21 -5 -16
-8 -18 -15 -7 -5 8 -6 3 -2 -14 5 -21 2 -29 -12 -35 -10 -4 -19 -2 -21 4 -7
21 -43 1 -43 -23 0 -28 -35 -46 -69 -37 -16 4 -20 2 -16 -9 5 -11 -1 -14 -22
-13 -15 1 -34 4 -42 6 -7 2 -16 -2 -18 -8 -3 -7 0 -13 6 -13 6 0 11 -7 11 -15
0 -8 -3 -15 -8 -15 -4 0 -12 -10 -17 -22 -8 -19 -18 -23 -55 -23 -25 -1 -51
-4 -58 -9 -7 -4 -15 -1 -18 9 -6 14 -8 14 -20 -2 -7 -10 -14 -25 -14 -33 0 -8
-4 -21 -9 -29 -8 -12 -12 -12 -25 -2 -8 7 -20 10 -25 6 -6 -3 -27 -2 -46 4
-39 11 -50 -4 -12 -18 22 -9 22 -9 -6 -16 -22 -6 -25 -10 -16 -21 8 -9 8 -22
1 -41 -7 -18 -11 -21 -11 -10 -1 21 -10 21 -35 2 -11 -8 -28 -15 -37 -15 -9 0
-26 -16 -38 -35 -21 -36 -41 -46 -41 -20 0 18 -37 20 -42 3 -3 -8 -18 -12 -40
-10 -47 4 -56 -11 -60 -93 l-3 -70 -152 -110 c-432 -314 -933 -694 -940 -713
-8 -19 244 -777 263 -793 11 -9 18 -8 33 5 13 11 21 14 26 7 10 -18 25 -13 25
9 0 12 21 35 55 61 31 23 60 50 66 61 5 10 16 18 24 18 8 0 19 9 25 20 6 11
16 20 23 20 7 0 21 16 31 35 11 19 23 35 28 35 4 0 8 11 8 25 0 14 4 25 10 25
5 0 7 -7 4 -15 -4 -8 -2 -15 4 -15 12 0 24 29 17 41 -3 5 4 23 17 41 37 53 55
61 60 26 3 -21 4 -21 36 7 18 15 36 24 40 21 3 -4 0 -11 -8 -16 -8 -5 -11 -12
-7 -16 4 -4 14 1 21 12 14 18 15 18 21 2 4 -10 14 -18 22 -18 12 0 13 3 4 13
-6 8 -8 17 -4 21 4 4 1 11 -6 15 -10 7 -9 13 5 30 10 11 26 21 36 21 24 0 23
21 -2 27 -11 3 -17 9 -14 14 9 15 28 10 56 -16 35 -32 37 -32 29 7 -5 26 -13
34 -39 39 -18 4 -35 2 -38 -3 -4 -5 -16 -7 -27 -4 -12 3 -27 0 -34 -6 -9 -7
-13 -7 -13 0 0 12 53 52 69 52 5 0 14 7 19 16 8 14 18 7 65 -40 31 -32 56 -59
56 -62 0 -2 2 -10 4 -17 8 -17 27 12 20 30 -5 13 5 17 45 13 12 -1 25 6 28 14
3 9 10 16 15 16 10 0 6 -101 -4 -117 -4 -7 1 -20 11 -30 21 -21 23 -48 3 -48
-8 0 -16 -6 -19 -14 -3 -10 2 -13 21 -9 14 3 32 1 39 -3 8 -5 15 -2 20 9 4 10
7 2 7 -23 0 -42 -13 -67 -42 -78 -9 -3 -17 -11 -17 -17 0 -6 -11 -15 -25 -20
-14 -5 -30 -21 -35 -35 -6 -15 -14 -24 -20 -20 -19 11 -60 -7 -60 -27 0 -18 1
-18 16 -4 22 22 37 20 29 -4 -4 -11 -2 -20 4 -20 6 0 11 -4 11 -10 0 -5 -9
-10 -20 -10 -11 0 -20 -5 -20 -10 0 -7 -8 -6 -22 2 -13 7 -27 11 -31 10 -5 -1
-26 2 -48 8 -22 6 -55 12 -74 14 -29 2 -35 -1 -35 -16 0 -11 -4 -17 -9 -14 -5
3 -11 -11 -14 -32 -3 -20 -8 -44 -11 -52 -4 -10 5 -20 27 -30 31 -15 40 -35
14 -35 -24 0 -77 -28 -77 -40 0 -18 27 -38 40 -30 6 4 4 12 -6 23 -12 11 -13
17 -5 20 7 2 19 -4 26 -14 13 -17 12 -21 -10 -41 -23 -20 -24 -23 -7 -32 14
-8 15 -13 5 -30 -18 -28 -6 -80 26 -115 18 -20 21 -27 9 -23 -12 4 -15 2 -11
-9 3 -8 -1 -14 -11 -14 -10 0 -16 -9 -16 -25 0 -13 -10 -33 -22 -45 l-22 -20
32 0 c22 0 32 5 32 15 0 8 4 15 10 15 15 0 -1 -63 -21 -83 -20 -18 -26 -32
-10 -23 15 10 69 -24 75 -47 3 -12 2 -23 -3 -25 -4 -1 -6 -14 -3 -29 3 -18 1
-24 -7 -19 -6 4 -11 14 -11 22 0 8 -5 14 -10 14 -9 0 -4 -47 6 -59 2 -2 -1
-12 -6 -22 -7 -12 -7 -20 0 -24 5 -3 10 -15 10 -25 0 -19 45 -50 72 -50 8 0
38 -16 68 -36 86 -56 111 -67 170 -71 66 -5 107 -14 225 -48 50 -15 128 -32
175 -40 47 -7 119 -24 160 -38 41 -13 100 -30 130 -38 30 -7 66 -21 79 -31 13
-10 29 -18 35 -18 13 0 86 -76 86 -89 0 -15 88 -51 124 -51 36 0 187 -33 206
-45 6 -4 26 -8 44 -11 19 -2 63 -13 98 -25 57 -18 124 -37 248 -69 25 -7 52
-14 60 -17 8 -4 18 -5 22 -5 9 2 104 -22 131 -33 9 -4 17 -13 17 -19 0 -22 45
-39 68 -27 11 6 28 11 38 11 13 0 14 -3 4 -15 -15 -17 -13 -18 60 -15 30 1 69
-4 85 -10 17 -7 46 -13 65 -13 19 0 51 -8 70 -19 19 -10 38 -18 43 -18 13 0
110 -75 134 -104 13 -14 31 -26 40 -26 53 0 199 -22 210 -32 18 -14 17 -38 -2
-38 -8 0 -15 7 -15 15 0 25 -47 19 -56 -7 -9 -31 -22 -38 -71 -38 -33 0 -43 4
-48 21 -5 16 -9 18 -21 8 -12 -10 -16 -9 -20 8 -5 17 -12 20 -52 16 -26 -2
-48 -8 -50 -13 -6 -18 -41 -10 -47 10 -3 11 -13 20 -22 20 -10 0 -13 -6 -9
-16 3 -8 2 -12 -4 -9 -18 11 -10 -24 8 -35 15 -10 15 -11 -3 -5 -41 14 -50 15
-66 2 -18 -13 -34 -67 -21 -67 5 0 14 -12 21 -27 11 -23 10 -29 -4 -39 -11 -9
-13 -14 -5 -19 16 -10 60 15 60 33 0 11 3 12 14 3 17 -14 29 0 20 23 -3 9 -2
16 4 16 5 0 13 -7 16 -16 5 -12 10 -13 19 -6 14 12 169 9 201 -4 14 -5 25 1
45 24 26 32 54 41 66 22 8 -13 62 -13 70 0 3 6 -1 10 -11 10 -14 0 -14 3 -4
16 11 12 16 13 26 2 15 -17 30 -63 17 -55 -6 4 -19 0 -29 -9 -18 -15 -18 -15
2 -9 24 6 54 -17 54 -42 0 -9 -7 -24 -15 -33 -12 -13 -13 -23 -5 -44 13 -35 8
-42 -35 -56 -19 -6 -35 -16 -35 -21 0 -5 -7 -9 -15 -9 -8 0 -15 -5 -15 -11 0
-6 7 -9 15 -5 16 6 21 -9 6 -18 -4 -3 -11 -28 -15 -55 l-6 -49 -68 -8 c-37 -4
-71 -7 -77 -6 -5 1 -46 6 -90 12 -82 11 -111 14 -250 25 -44 4 -107 11 -140
16 -33 5 -121 16 -195 25 -74 9 -146 17 -160 19 -14 2 -43 4 -65 5 -23 1 -31
4 -20 7 11 3 25 9 31 14 6 5 18 7 26 4 9 -4 18 1 21 9 4 10 18 16 37 16 16 0
30 4 30 9 0 14 -99 8 -105 -6 -3 -9 -11 -10 -30 -3 -14 5 -25 6 -25 0 0 -5 -9
-11 -20 -14 -11 -3 -29 -8 -39 -11 -15 -5 -20 0 -23 17 -2 13 -9 22 -16 20 -6
-1 -12 2 -12 8 0 14 -28 12 -33 -2 -2 -7 -8 -9 -13 -5 -5 5 1 17 15 28 19 16
21 22 11 34 -14 17 -45 21 -35 5 12 -19 -5 -30 -30 -20 -29 11 -35 -9 -10 -30
22 -18 18 -32 -7 -28 -13 2 -23 8 -23 13 -1 26 -17 35 -57 29 -32 -6 -40 -4
-36 7 3 8 11 15 19 15 8 1 20 2 27 3 6 0 12 7 12 15 0 17 -40 32 -49 19 -3 -6
-19 -12 -34 -15 -26 -5 -27 -4 -12 12 13 15 14 19 1 29 -27 23 -12 45 37 55
26 5 47 14 47 19 0 5 -9 7 -20 4 -11 -3 -30 3 -42 12 l-21 18 26 7 c15 3 27
11 27 16 0 13 -47 13 -54 1 -3 -5 -16 -7 -28 -3 l-22 5 23 -31 c12 -18 20 -35
17 -40 -6 -10 -86 -2 -86 9 0 5 5 9 10 9 6 0 10 5 10 10 0 6 -9 10 -20 10 -14
0 -25 -11 -34 -31 -10 -24 -15 -28 -22 -18 -5 8 -9 21 -9 29 0 8 -6 15 -12 14
-7 -1 -26 -2 -43 -2 -22 -2 -30 -7 -30 -20 0 -10 -10 -26 -22 -36 -21 -18 -23
-18 -54 -1 -18 10 -40 15 -48 12 -9 -4 -25 -3 -37 1 -21 8 -21 9 5 25 27 18
35 51 14 63 -8 5 -9 0 -6 -14 8 -29 -28 -31 -37 -2 -9 28 -70 28 -85 0 -14
-26 -5 -40 23 -40 20 1 20 2 4 11 -9 6 -15 14 -12 20 9 14 41 11 54 -5 10 -12
7 -17 -15 -29 -30 -16 -87 -7 -113 18 -12 12 -10 15 13 21 21 5 24 9 15 20
-17 20 -40 17 -46 -6 -6 -22 -33 -28 -33 -6 0 7 7 19 15 26 8 7 15 23 15 36 0
14 6 24 14 24 34 0 19 26 -27 47 -37 17 -48 27 -43 39 4 9 2 22 -4 29 -8 9 -5
14 11 18 16 4 19 11 14 26 -3 12 -3 26 2 33 9 15 9 19 11 71 2 25 7 37 17 37
22 0 18 17 -6 30 -12 7 -18 18 -15 26 3 8 -1 14 -10 14 -12 0 -15 6 -11 22 4
13 0 26 -10 33 -20 15 -8 36 15 28 15 -6 15 -5 3 10 -19 24 -41 21 -41 -5 0
-21 -38 -68 -54 -68 -4 0 -4 11 0 25 8 31 -15 34 -34 5 -10 -17 -9 -25 4 -45
9 -14 15 -27 13 -29 -11 -8 -78 -36 -87 -36 -6 0 -14 -5 -18 -12 -5 -8 2 -9
24 -5 43 9 59 -13 37 -47 -10 -14 -23 -26 -31 -26 -7 0 -16 -5 -20 -11 -4 -8
3 -9 26 -4 29 6 32 5 26 -10 -4 -11 0 -22 11 -31 16 -12 12 -13 -30 -14 -34 0
-47 -4 -45 -12 3 -7 14 -14 26 -16 24 -4 30 -27 10 -35 -10 -3 -10 -9 0 -27
13 -21 12 -22 -7 -17 -12 3 -24 1 -27 -4 -3 -5 -13 -5 -25 1 -13 7 -19 7 -19
0 0 -5 -10 -10 -23 -10 -36 0 -70 -29 -64 -55 3 -21 0 -24 -40 -27 -25 -2 -47
0 -49 4 -3 5 9 8 25 8 26 0 31 4 31 24 0 14 -4 28 -10 31 -5 3 -10 14 -10 24
0 10 -9 21 -20 24 -27 7 -27 -29 0 -38 27 -9 15 -25 -17 -25 -15 0 -34 -7 -44
-16 -23 -21 -85 -10 -92 17 -7 25 -42 24 -60 -1 -11 -16 -21 -19 -41 -14 -26
6 -35 27 -15 39 17 11 5 28 -23 31 -25 2 -27 -1 -30 -39 l-3 -42 -45 0 -45 0
-3 53 c-3 54 -9 60 -44 41 -17 -9 -18 -13 -7 -20 11 -7 9 -12 -9 -25 -17 -12
-21 -19 -13 -27 18 -18 12 -37 -11 -37 -19 0 -20 2 -8 10 13 9 13 12 -3 24
-18 14 -18 16 -1 41 15 23 15 28 3 36 -8 5 -24 9 -35 9 -17 0 -20 5 -16 26 4
23 2 25 -16 20 -11 -4 -23 -2 -27 4 -3 6 -11 8 -16 5 -14 -9 -11 -25 6 -25 16
0 48 -54 38 -64 -4 -3 -2 -6 4 -6 6 0 13 -9 16 -20 9 -33 -27 -24 -40 10 -14
36 -48 43 -38 8 4 -13 11 -27 16 -32 16 -18 9 -21 -51 -22 -33 -1 -60 2 -60 7
0 5 7 9 15 9 16 0 55 30 55 43 0 4 -8 3 -18 -2 -9 -5 -37 -8 -62 -7 -25 2 -52
-1 -61 -5 -10 -5 -24 -2 -37 6 -11 8 -27 12 -36 9 -23 -9 -70 45 -55 63 18 21
3 27 -28 11 -16 -8 -47 -13 -68 -11 -36 4 -38 3 -22 -10 17 -14 16 -16 -18
-37 -19 -12 -35 -24 -35 -27 0 -3 7 -20 16 -39 9 -19 14 -37 10 -41 -9 -9 -50
47 -56 76 l-6 26 -13 -23 c-11 -20 -10 -26 4 -42 19 -21 2 -39 -20 -20 -11 9
-19 8 -35 -3 l-21 -15 25 -20 c28 -22 33 -32 14 -32 -6 0 -24 15 -39 33 -26
31 -28 31 -46 15 -11 -10 -27 -18 -37 -18 -9 0 -26 -5 -37 -10 -15 -8 -19 -7
-19 4 0 11 -20 26 -36 26 -10 0 -2 -78 11 -100 19 -33 19 -51 0 -44 -12 5 -15
-2 -15 -33 0 -34 10 -50 82 -134 46 -53 216 -251 380 -440 346 -401 358 -417
353 -432 -3 -7 -9 -50 -15 -97 -6 -47 -15 -112 -20 -145 -5 -33 -14 -96 -20
-140 -6 -44 -15 -107 -20 -140 -5 -33 -20 -141 -34 -240 -14 -99 -33 -227 -41
-285 -8 -58 -20 -141 -26 -185 -6 -44 -15 -102 -20 -128 -5 -26 -9 -69 -9 -95
l0 -47 183 -80 c100 -43 214 -93 252 -111 59 -27 207 -92 370 -164 86 -38 143
-63 203 -91 35 -16 65 -29 67 -29 17 0 136 -63 139 -73 2 -6 10 -38 17 -70 7
-31 18 -62 26 -68 7 -6 13 -18 13 -26 0 -12 3 -13 14 -4 10 9 15 8 20 -4 4
-11 -1 -15 -19 -15 -31 0 -31 -8 -4 -125 27 -119 28 -121 77 -117 22 2 43 -1
47 -7 9 -16 25 -13 25 4 0 14 3 13 25 -1 14 -9 25 -12 25 -6 0 14 40 3 41 -12
1 -6 1 -18 0 -26 -1 -12 14 -15 87 -15 79 0 95 -3 143 -29 30 -16 56 -31 58
-32 7 -6 -32 -44 -45 -44 -7 0 -26 -14 -43 -31 -17 -17 -35 -28 -39 -25 -5 3
-15 -3 -24 -12 -18 -21 -76 -72 -82 -72 -2 0 -20 -16 -40 -35 -32 -30 -44 -35
-86 -35 -27 0 -51 -4 -54 -8 -5 -9 1 -34 30 -140 13 -46 17 -51 34 -42 17 9
18 8 3 -21 -9 -19 -13 -42 -9 -62 4 -18 9 -50 12 -71 7 -52 23 -83 34 -66 4 7
13 9 19 6 16 -10 14 -36 -4 -42 -20 -8 -20 -73 0 -121 8 -19 15 -48 15 -64 0
-16 6 -29 13 -30 48 -4 421 17 465 27 35 7 256 25 362 29 123 4 386 24 427 31
39 7 -10 73 463 -634 206 -309 380 -561 386 -562 12 0 270 155 438 264 48 31
89 56 92 56 2 0 51 30 107 66 56 37 116 75 132 84 17 10 80 48 140 85 61 38
140 86 177 108 l67 39 33 -19 c30 -18 75 -46 328 -203 47 -29 123 -76 170
-105 47 -29 141 -87 210 -130 245 -153 398 -245 407 -245 5 0 81 107 169 237
444 661 619 920 638 941 11 12 27 20 35 17 9 -2 86 -9 171 -15 85 -6 211 -15
280 -20 69 -5 193 -14 275 -20 83 -5 197 -14 255 -20 58 -5 146 -12 197 -15
l92 -6 9 38 c5 21 26 117 46 213 20 96 45 211 55 255 11 44 25 107 31 140 7
33 16 74 20 90 4 17 13 55 19 85 10 49 80 367 101 460 4 19 16 74 26 122 20
99 0 82 189 163 61 26 143 62 183 81 41 19 76 34 78 34 3 0 48 19 239 104 77
35 155 69 343 151 226 99 213 86 193 192 -5 26 -14 86 -21 133 -6 47 -16 114
-21 150 -5 36 -25 178 -44 315 -35 250 -49 348 -65 460 -5 33 -14 96 -20 140
-6 44 -16 110 -22 147 l-11 67 54 63 c57 66 219 254 299 348 190 220 270 317
270 328 0 6 -9 12 -20 12 -11 0 -20 3 -20 8 0 16 16 27 40 26 26 -1 60 22 60
39 0 6 14 23 32 37 30 26 31 28 15 44 -19 20 -39 13 -30 -10 3 -9 -10 -31 -36
-56 -30 -31 -41 -37 -41 -24 0 9 -4 15 -9 12 -8 -5 -10 5 -11 76 -1 19 -7 28
-26 32 -14 4 -29 4 -35 0 -6 -3 -7 4 -3 22 6 25 5 26 -20 20 -14 -3 -26 -2
-26 3 0 5 -3 16 -6 24 -4 11 1 13 22 9 25 -4 26 -3 19 27 -4 20 -3 31 4 31 6
0 11 -9 11 -20 0 -15 8 -22 29 -26 23 -5 31 -13 37 -37 l6 -31 20 27 c11 15
24 25 29 21 5 -3 9 -2 9 1 0 10 -23 30 -44 38 -13 5 -17 14 -14 32 4 21 2 23
-13 15 -30 -17 -38 -12 -26 15 13 26 57 36 57 13 0 -9 3 -8 10 2 7 11 11 9 19
-13 12 -30 36 -38 27 -9 -5 16 -1 19 27 18 33 -2 67 -24 67 -45 0 -6 -4 -11
-10 -11 -5 0 -10 -11 -10 -25 0 -14 -9 -34 -20 -45 -27 -27 -26 -60 1 -60 19
0 20 1 3 18 -17 16 -17 17 4 20 12 2 22 9 22 16 0 8 7 19 15 26 22 18 22 240
1 240 -18 0 -29 17 -21 30 5 8 11 7 21 -1 10 -8 14 -8 14 0 0 6 -4 11 -10 11
-5 0 -10 7 -10 15 0 9 -11 33 -25 55 -14 22 -25 44 -25 50 0 5 -4 10 -9 10 -5
0 -11 8 -14 18 -3 9 -12 28 -20 42 -8 14 -21 39 -29 55 -33 65 -102 190 -107
195 -3 3 -13 19 -21 35 -8 17 -22 42 -31 56 -10 14 -21 37 -24 52 -4 15 -10
27 -14 27 -4 0 -13 16 -21 35 -8 19 -16 35 -20 35 -3 0 -12 16 -19 35 -7 19
-53 108 -103 197 l-91 161 58 176 c32 97 62 190 66 206 5 17 20 69 34 116 14
47 25 90 25 95 0 6 9 29 20 52 11 22 20 47 20 55 0 7 4 17 8 23 5 5 14 34 21
64 7 30 19 69 26 85 7 17 18 50 25 75 8 25 17 49 22 55 4 5 8 19 8 31 0 13 5
26 10 29 6 3 10 19 10 36 0 16 5 29 10 29 6 0 10 9 10 19 0 11 5 23 10 26 6 3
10 17 10 30 0 13 5 27 10 30 6 3 10 15 10 25 0 11 11 53 25 94 29 85 29 86 15
86 -6 0 -22 11 -35 24 -14 14 -48 40 -77 60 -29 19 -64 45 -78 58 -55 50 -108
80 -132 73 -16 -4 -19 -4 -9 3 17 12 -4 34 -89 98 -30 23 -99 74 -154 115 -54
41 -119 89 -145 107 -25 17 -64 47 -85 65 -21 17 -62 49 -90 70 -28 20 -56 42
-63 47 -7 6 -16 10 -20 10 -5 0 -14 9 -21 20 -7 11 -19 20 -27 20 -8 0 -15 5
-15 10 0 6 -8 10 -19 10 -25 0 -30 48 -36 335 -3 127 -8 257 -11 290 -3 33 -7
160 -9 282 -2 122 -8 230 -13 240 -7 11 -7 24 -1 35 6 10 7 23 3 29 -3 6 -6
86 -5 179 0 93 -3 171 -8 174 -5 3 -40 10 -77 16 -67 10 -136 22 -239 41 -27
5 -77 13 -110 18 -33 6 -98 17 -145 25 -47 8 -150 27 -230 41 -187 33 -350 63
-422 77 -57 12 -57 12 -79 67 -13 31 -32 79 -44 106 -13 28 -35 79 -50 115
-15 36 -33 79 -40 95 -7 17 -25 59 -40 95 -15 36 -35 83 -45 105 -10 22 -39
92 -65 155 -25 63 -57 138 -71 167 -13 30 -24 55 -24 58 0 6 -171 409 -176
414 -4 5 -28 -2 -249 -74 -88 -29 -281 -92 -430 -140 -148 -48 -279 -91 -290
-95 -11 -5 -36 -13 -55 -19 -19 -6 -66 -21 -105 -34 -135 -46 -106 -59 -299
130 -94 92 -236 231 -316 308 -80 77 -224 218 -321 313 -97 94 -183 172 -190
172 -8 0 -59 -44 -114 -97z m-2030 -1173 c0 -7 -8 -14 -18 -16 -27 -4 -34 -14
-17 -24 12 -8 12 -10 2 -10 -8 0 -16 9 -19 19 -3 11 -17 21 -34 25 -51 10 -32
25 29 22 39 -2 57 -7 57 -16z m101 -24 c0 0 8 -13 17 -28 15 -24 15 -28 2 -28
-8 0 -22 11 -30 24 -11 16 -22 22 -35 19 -14 -4 -20 0 -20 12 0 14 6 15 33 10
17 -4 32 -8 33 -9z m54 -6 c0 -5 -9 -10 -20 -10 -11 0 -20 5 -20 10 0 6 9 10
20 10 11 0 20 -4 20 -10z m130 -31 c0 -5 -4 -9 -9 -9 -5 0 -11 -9 -14 -20 -8
-32 -34 -25 -29 8 3 20 9 27 28 28 13 1 24 -2 24 -7z m165 -18 c-4 -12 2 -17
20 -19 18 -1 23 2 19 13 -4 10 0 15 15 15 12 0 21 -6 21 -14 0 -17 39 -48 52
-40 4 3 8 0 8 -5 0 -6 -7 -11 -15 -11 -8 0 -19 -10 -26 -21 -9 -17 -13 -19
-20 -8 -5 8 -4 18 1 23 6 6 10 13 10 17 0 10 -50 17 -56 8 -3 -5 -14 -5 -24 1
-33 18 -52 13 -45 -11 5 -13 2 -25 -6 -30 -20 -12 -30 0 -19 21 6 12 7 28 1
44 -11 27 -7 30 39 32 24 1 29 -2 25 -15z m-117 -10 c9 -5 11 -17 6 -35 -7
-31 -18 -24 -28 17 -7 28 -1 33 22 18z m-123 -30 c7 -12 -12 -24 -25 -16 -11
7 -4 25 10 25 5 0 11 -4 15 -9z m575 0 c0 -4 -11 -6 -25 -3 -14 2 -25 6 -25 8
0 2 11 4 25 4 14 0 25 -4 25 -9z m-955 -30 c-9 -16 -25 -3 -18 15 4 10 9 12
15 6 6 -6 7 -15 3 -21z m145 8 c0 -14 -16 -11 -29 5 -10 12 -8 13 8 9 12 -3
21 -9 21 -14z m-60 -9 c0 -5 -5 -10 -11 -10 -5 0 -7 5 -4 10 3 6 8 10 11 10 2
0 4 -4 4 -10z m923 -14 c-10 -13 -22 -21 -28 -18 -5 3 -4 7 3 10 7 2 12 10 12
18 0 8 7 14 15 14 14 0 13 -3 -2 -24z m-1198 -14 c-8 -8 -25 10 -19 20 4 6 9
5 15 -3 4 -7 6 -15 4 -17z m1428 -18 c9 -4 17 -12 17 -18 0 -15 -42 -16 -52
-2 -12 18 -9 38 5 32 6 -3 20 -9 30 -12z m-538 -43 c-3 -12 -13 -21 -21 -21
-19 0 -18 10 4 30 21 21 26 18 17 -9z m-454 -4 c-13 -13 -26 -3 -16 12 3 6 11
8 17 5 6 -4 6 -10 -1 -17z m289 3 c0 -5 -4 -10 -10 -10 -5 0 -10 5 -10 10 0 6
5 10 10 10 6 0 10 -4 10 -10z m617 -27 c8 -19 -5 -29 -19 -15 -7 7 -22 12 -34
12 -13 0 -25 4 -29 9 -3 6 12 10 36 9 25 0 43 -6 46 -15z m469 2 c4 -8 12 -15
20 -15 8 0 14 -2 14 -4 0 -2 3 -12 6 -21 6 -14 2 -14 -27 3 -19 10 -35 26 -37
35 -4 21 17 22 24 2z m87 -25 c16 -19 16 -20 -3 -20 -11 0 -20 2 -20 4 0 2 -3
11 -6 20 -9 22 8 20 29 -4z m97 0 c0 -5 -7 -7 -15 -4 -8 4 -12 10 -9 15 6 11
24 2 24 -11z m-1420 0 c0 -5 -5 -10 -11 -10 -5 0 -7 5 -4 10 3 6 8 10 11 10 2
0 4 -4 4 -10z m-30 -9 c0 -6 -4 -13 -10 -16 -5 -3 -10 1 -10 9 0 9 5 16 10 16
6 0 10 -4 10 -9z m960 -1 c0 -5 -2 -10 -4 -10 -3 0 -8 5 -11 10 -3 6 -1 10 4
10 6 0 11 -4 11 -10z m-301 -69 c0 -12 -4 -10 -16 7 -18 25 -33 29 -33 7 0 -8
-7 -15 -15 -15 -23 0 -18 30 8 39 25 10 57 -12 56 -38z m154 43 c10 -11 -46
-51 -65 -46 -28 7 -24 35 6 39 11 2 22 6 25 8 6 7 26 6 34 -1z m807 -30 c0 -2
-9 -4 -20 -4 -11 0 -20 4 -20 9 0 5 9 7 20 4 11 -3 20 -7 20 -9z m-1166 -29
c3 -8 1 -15 -4 -15 -6 0 -10 7 -10 15 0 8 2 15 4 15 2 0 6 -7 10 -15z m-1029
-15 c-3 -5 -11 -10 -16 -10 -6 0 -7 5 -4 10 3 6 11 10 16 10 6 0 7 -4 4 -10z
m1455 -10 c0 -5 -2 -10 -4 -10 -3 0 -8 5 -11 10 -3 6 -1 10 4 10 6 0 11 -4 11
-10z m905 0 c3 -5 1 -10 -4 -10 -6 0 -11 5 -11 10 0 6 2 10 4 10 3 0 8 -4 11
-10z m-1695 -10 c0 -5 -4 -10 -10 -10 -5 0 -10 5 -10 10 0 6 5 10 10 10 6 0
10 -4 10 -10z m1525 0 c3 -5 -1 -10 -10 -10 -9 0 -13 5 -10 10 3 6 8 10 10 10
2 0 7 -4 10 -10z m845 0 c0 -5 -4 -10 -10 -10 -5 0 -10 5 -10 10 0 6 5 10 10
10 6 0 10 -4 10 -10z m-2210 -20 c0 -5 -4 -10 -10 -10 -5 0 -10 5 -10 10 0 6
5 10 10 10 6 0 10 -4 10 -10z m2100 0 c0 -5 7 -10 15 -10 22 0 18 -14 -9 -26
-20 -9 -24 -8 -34 18 -9 25 -8 28 9 28 10 0 19 -4 19 -10z m-2380 -34 c0 -3
-4 -8 -10 -11 -5 -3 -10 -1 -10 4 0 6 5 11 10 11 6 0 10 -2 10 -4z m2289 -17
c-16 -10 -23 -4 -14 10 3 6 11 8 17 5 6 -4 5 -9 -3 -15z m243 9 c-9 -9 -15 -9
-24 0 -9 9 -7 12 12 12 19 0 21 -3 12 -12z m-3112 -8 c0 -5 -4 -10 -10 -10 -5
0 -10 5 -10 10 0 6 5 10 10 10 6 0 10 -4 10 -10z m105 0 c-3 -5 -10 -10 -16
-10 -5 0 -9 5 -9 10 0 6 7 10 16 10 8 0 12 -4 9 -10z m1788 -5 c-3 -9 -8 -14
-10 -11 -3 3 -2 9 2 15 9 16 15 13 8 -4z m1027 5 c0 -5 -7 -10 -15 -10 -8 0
-15 5 -15 10 0 6 7 10 15 10 8 0 15 -4 15 -10z m-2530 -19 c0 -6 -4 -13 -10
-16 -5 -3 -10 1 -10 9 0 9 5 16 10 16 6 0 10 -4 10 -9z m2590 -1 c0 -5 -5 -10
-11 -10 -5 0 -7 5 -4 10 3 6 8 10 11 10 2 0 4 -4 4 -10z m-1600 -21 c0 -11 -3
-11 -24 -3 -23 9 -20 23 4 17 11 -3 20 -9 20 -14z m-55 1 c3 -5 -1 -10 -9 -10
-9 0 -16 5 -16 10 0 6 4 10 9 10 6 0 13 -4 16 -10z m-1445 -10 c0 -5 -4 -10
-10 -10 -5 0 -10 5 -10 10 0 6 5 10 10 10 6 0 10 -4 10 -10z m410 -14 c0 -3
-4 -8 -10 -11 -5 -3 -10 -1 -10 4 0 6 5 11 10 11 6 0 10 -2 10 -4z m715 -56
c3 -5 -1 -10 -9 -10 -9 0 -16 5 -16 10 0 6 4 10 9 10 6 0 13 -4 16 -10z m3202
-46 c-3 -3 -12 -4 -19 -1 -8 3 -5 6 6 6 11 1 17 -2 13 -5z m-3007 -93 c0 -5
-7 -11 -15 -15 -15 -5 -20 5 -8 17 9 10 23 9 23 -2z m-1440 -25 c0 -3 -4 -8
-10 -11 -5 -3 -10 -1 -10 4 0 6 5 11 10 11 6 0 10 -2 10 -4z m1205 -26 c-3 -5
-10 -10 -16 -10 -5 0 -9 5 -9 10 0 6 7 10 16 10 8 0 12 -4 9 -10z m3885 4 c0
-3 -7 -12 -15 -21 -11 -11 -19 -12 -28 -4 -7 5 -23 8 -35 4 -13 -3 -22 -1 -22
6 0 7 4 9 10 6 5 -3 17 -2 25 2 17 10 65 15 65 7z m-4925 -34 c3 -5 -1 -10 -9
-10 -9 0 -16 5 -16 10 0 6 4 10 9 10 6 0 13 -4 16 -10z m4941 -17 c-10 -10
-19 5 -10 18 6 11 8 11 12 0 2 -7 1 -15 -2 -18z m84 9 c0 -4 20 -18 45 -30 25
-12 45 -26 45 -32 0 -16 -18 -12 -28 7 -5 9 -16 14 -25 10 -9 -3 -26 6 -43 24
-22 23 -24 29 -11 29 9 0 17 -4 17 -8z m138 2 c-10 -9 -58 -12 -52 -3 3 5 17
9 31 9 15 0 24 -3 21 -6z m19 -16 c-3 -8 -6 -5 -6 6 -1 11 2 17 5 13 3 -3 4
-12 1 -19z m-5372 2 c3 -5 1 -10 -4 -10 -6 0 -11 5 -11 10 0 6 2 10 4 10 3 0
8 -4 11 -10z m5554 -46 c3 -3 0 -9 -6 -15 -8 -8 -17 -7 -32 3 -12 8 -18 18
-14 22 6 6 42 -1 52 -10z m246 -3 c-3 -6 -11 -11 -16 -11 -5 0 -4 6 3 14 14
16 24 13 13 -3z m240 -61 c4 -6 -7 -10 -25 -10 -18 0 -29 4 -25 10 3 6 15 10
25 10 10 0 22 -4 25 -10z m-6065 -30 c-28 -22 -40 -25 -40 -10 0 11 30 29 50
29 10 1 6 -6 -10 -19z m5400 -1 c0 -5 -4 -9 -10 -9 -5 0 -10 7 -10 16 0 8 5
12 10 9 6 -3 10 -10 10 -16z m785 1 c3 -5 1 -10 -4 -10 -6 0 -11 5 -11 10 0 6
2 10 4 10 3 0 8 -4 11 -10z m-755 -20 c0 -5 -2 -10 -4 -10 -3 0 -8 5 -11 10
-3 6 -1 10 4 10 6 0 11 -4 11 -10z m842 -12 c-12 -12 -35 -1 -27 12 3 5 13 6
21 3 10 -4 12 -9 6 -15z m98 18 c0 -3 -4 -8 -10 -11 -5 -3 -10 -1 -10 4 0 6 5
11 10 11 6 0 10 -2 10 -4z m20 -55 c0 -13 -26 -32 -33 -24 -14 13 -6 33 13 33
11 0 20 -4 20 -9z m240 -26 c0 -8 -7 -15 -15 -15 -26 0 -18 20 13 29 1 1 2 -6
2 -14z m145 -68 c13 -10 15 -16 6 -21 -17 -11 -41 0 -41 19 0 19 11 19 35 2z
m-4393 -119 l3 -29 24 22 c19 18 25 19 32 8 5 -8 9 -20 9 -26 0 -15 9 -16 30
-4 22 14 32 2 14 -16 -15 -15 -15 -18 2 -30 10 -7 27 -13 38 -13 27 -1 60 -26
51 -39 -3 -6 0 -11 8 -11 8 0 17 9 20 20 4 14 14 20 35 20 17 0 34 5 37 10 4
6 12 7 18 3 15 -9 48 -4 65 9 9 8 12 4 12 -16 0 -26 13 -35 25 -16 9 15 25 12
25 -4 0 -18 40 -32 49 -18 11 18 41 -16 45 -51 1 -11 75 -77 87 -77 5 0 18 9
30 21 l21 21 24 -23 c13 -12 24 -28 24 -36 0 -20 16 -16 34 10 15 19 16 20 11
2 -4 -11 -10 -26 -13 -34 -4 -10 -1 -13 11 -8 12 5 17 1 17 -13 0 -11 -5 -20
-10 -20 -6 0 -16 -12 -23 -27 -6 -16 -16 -32 -22 -36 -6 -5 -1 -7 10 -4 11 2
19 9 18 15 -2 7 4 12 12 12 8 0 15 7 15 15 0 8 4 15 9 15 14 0 33 -28 26 -39
-3 -6 -1 -19 5 -30 8 -16 6 -22 -10 -31 -11 -6 -25 -8 -31 -5 -5 4 -15 2 -22
-3 -7 -5 -26 -13 -43 -16 -24 -5 -33 -3 -38 9 -5 13 -9 14 -28 4 -13 -7 -68
-14 -123 -15 -55 -1 -105 -3 -111 -3 -6 -1 -9 -12 -6 -26 3 -16 0 -26 -9 -27
-8 0 -19 -2 -26 -2 -6 -1 -23 -12 -37 -25 -14 -13 -32 -21 -40 -18 -31 12 -50
-42 -51 -141 0 -61 3 -85 9 -70 4 13 12 30 17 38 5 8 13 25 19 38 10 24 30 30
30 9 0 -8 11 -19 24 -27 13 -7 27 -21 29 -31 7 -25 28 -24 34 1 6 22 22 25 70
11 23 -7 35 -6 43 4 6 7 21 13 35 13 13 0 42 8 63 19 30 14 46 17 67 10 22 -8
30 -6 37 7 10 18 48 22 48 5 0 -6 7 -8 15 -5 9 3 18 -1 21 -9 4 -8 19 -15 34
-15 16 0 35 -7 44 -15 8 -8 26 -15 40 -15 14 0 28 -4 31 -10 3 -5 20 -10 36
-10 17 0 32 -6 35 -15 4 -8 15 -15 25 -15 12 0 19 -7 19 -20 0 -11 6 -23 14
-26 8 -3 12 -12 10 -19 -6 -15 30 -30 46 -20 5 3 10 1 10 -5 0 -6 11 -15 25
-20 24 -9 29 -19 26 -47 -3 -20 19 -54 30 -47 6 3 25 -10 44 -29 19 -19 36
-33 38 -30 3 2 16 1 31 -3 21 -5 27 -14 32 -43 4 -25 13 -40 27 -47 24 -10 38
-67 15 -60 -7 3 -62 12 -123 21 -167 25 -169 25 -115 42 25 7 55 11 68 8 12
-3 22 -1 22 4 0 12 -17 17 -69 20 -24 1 -60 11 -80 21 -20 11 -54 27 -76 36
-22 8 -48 20 -57 25 -10 5 -29 9 -43 9 -14 0 -25 6 -25 13 0 12 -99 40 -109
32 -9 -9 13 -25 34 -25 30 0 41 -31 25 -70 l-12 -29 -19 22 c-16 19 -18 20
-19 5 0 -21 -39 -24 -72 -7 -16 9 -23 8 -29 -3 -10 -18 -131 -16 -137 2 -2 6
-10 4 -17 -7 -11 -15 -15 -15 -30 -3 -15 13 -15 15 7 24 l23 9 -25 5 c-42 7
-46 20 -14 52 16 16 35 30 42 30 6 0 12 5 12 10 0 11 -43 14 -53 3 -4 -3 -19
-8 -33 -9 -19 -2 -28 3 -31 17 -3 10 -9 19 -13 19 -7 0 -23 -33 -25 -51 0 -3
-7 -13 -17 -22 -9 -9 -18 -22 -20 -29 -4 -10 -8 -10 -21 1 -15 12 -17 11 -17
-3 0 -20 -23 -46 -39 -46 -7 0 -9 -14 -5 -41 4 -26 2 -49 -7 -65 -12 -23 -11
-27 6 -37 11 -7 27 -12 35 -13 37 -2 100 -17 100 -25 0 -17 -22 -20 -52 -8
-24 10 -33 10 -36 1 -2 -8 -8 -8 -22 0 -11 7 -22 9 -26 5 -13 -12 16 -34 47
-35 17 0 37 -6 46 -13 12 -11 17 -10 24 4 9 15 11 15 30 -4 15 -15 30 -20 50
-17 18 3 29 0 29 -8 0 -13 19 -19 95 -30 28 -3 55 -11 62 -16 6 -5 14 -5 17 0
3 5 31 5 67 0 39 -5 76 -4 101 3 22 6 46 8 53 5 7 -2 16 1 19 9 3 9 16 12 35
10 17 -2 31 0 31 5 0 6 9 10 20 10 11 0 20 4 20 10 0 17 41 48 72 54 25 5 28
9 19 20 -7 8 -22 16 -34 18 -12 2 -21 8 -20 13 5 18 61 26 105 14 24 -6 54
-12 68 -14 43 -5 70 -17 70 -31 0 -8 7 -17 15 -20 8 -4 15 -11 15 -16 0 -15
32 -37 53 -38 27 0 5 33 -38 60 -20 12 -34 24 -31 27 7 7 48 -16 78 -44 24
-23 26 -30 21 -79 -6 -53 -5 -54 21 -54 16 0 26 -5 26 -15 0 -8 10 -25 21 -36
20 -20 20 -23 5 -31 -9 -5 -16 -13 -16 -18 0 -15 30 -12 36 4 9 23 66 -13 60
-38 -3 -11 1 -24 8 -30 21 -17 30 -66 12 -66 -16 0 -31 -18 -22 -27 3 -3 12 0
20 6 11 10 19 7 40 -16 14 -15 26 -34 26 -41 0 -18 -30 -62 -43 -62 -16 0 -57
-41 -57 -57 0 -10 7 -12 21 -8 19 6 21 4 15 -19 -4 -18 -1 -31 12 -44 15 -15
16 -20 5 -31 -7 -6 -11 -22 -8 -34 9 -37 -8 -51 -44 -39 -25 9 -31 8 -31 -4 0
-7 7 -14 15 -14 9 0 12 -6 9 -15 -4 -10 0 -15 12 -15 11 0 26 -5 34 -10 13 -8
13 -11 -2 -22 -26 -20 -11 -80 22 -88 22 -5 23 -7 7 -13 -10 -4 -27 -2 -38 3
-13 8 -19 7 -19 0 0 -19 -28 -40 -44 -34 -20 8 -21 -19 -1 -39 8 -8 11 -17 8
-21 -9 -9 10 -7 26 3 8 5 10 14 6 22 -5 8 -1 7 10 -2 13 -13 15 -21 6 -37 -13
-24 -42 -37 -51 -22 -4 7 -15 6 -33 -3 -28 -15 -26 -27 4 -27 9 0 19 -7 23
-15 10 -26 34 -16 52 21 21 44 60 72 77 55 8 -8 4 -11 -16 -11 -19 0 -27 -5
-27 -18 0 -10 -7 -27 -15 -38 -19 -24 -19 -35 -1 -28 12 5 13 0 5 -30 -6 -20
-8 -52 -5 -70 4 -22 1 -38 -8 -45 -7 -6 -11 -22 -8 -36 2 -14 0 -25 -7 -25 -6
0 -10 10 -8 23 1 13 -3 21 -10 19 -17 -3 -17 15 0 25 17 10 30 43 17 43 -5 0
-21 -11 -35 -25 -28 -29 -34 -75 -10 -75 19 0 19 -13 -1 -51 -23 -45 -12 -66
34 -62 29 2 33 1 17 -6 -11 -5 -31 -10 -45 -10 -18 -1 -21 -4 -11 -10 8 -5 11
-16 7 -26 -5 -14 -9 -15 -21 -5 -12 10 -15 9 -15 -5 0 -9 -11 -26 -25 -37 -20
-15 -23 -23 -15 -33 7 -8 7 -16 2 -19 -6 -3 -13 2 -16 11 -6 14 -9 14 -29 -5
-17 -16 -26 -18 -39 -11 -12 7 -18 7 -18 0 0 -15 30 -41 47 -41 13 0 13 -3 3
-15 -7 -8 -23 -15 -35 -15 -24 0 -35 -30 -35 -97 0 -20 -4 -32 -10 -28 -5 3
-10 15 -10 26 0 12 -5 19 -12 16 -7 -2 -12 -16 -11 -31 1 -14 -3 -26 -8 -26
-6 0 -7 5 -3 12 4 7 3 8 -5 4 -6 -4 -10 -15 -9 -24 4 -23 -31 -27 -47 -5 -13
17 -15 16 -21 -16 -4 -21 -14 -36 -26 -39 -11 -2 -26 -21 -34 -41 -8 -22 -28
-45 -47 -56 -18 -10 -37 -26 -44 -34 -10 -14 -14 -14 -25 -2 -10 11 -10 14 0
18 20 8 14 22 -19 38 -24 13 -34 14 -45 4 -20 -16 -18 -39 4 -39 9 0 23 -9 30
-20 7 -12 8 -20 2 -20 -5 0 -10 5 -10 10 0 7 -6 7 -19 1 -14 -8 -23 -5 -40 13
-26 27 -26 34 -1 66 11 14 20 28 20 33 0 15 -30 6 -42 -13 -7 -11 -18 -20 -25
-20 -21 0 -57 -41 -44 -50 17 -10 -39 -67 -70 -72 -19 -2 -26 -11 -33 -44 -10
-48 -46 -80 -46 -40 0 22 -23 42 -43 37 -4 0 -16 3 -25 8 -13 7 -25 4 -42 -10
-30 -23 -40 -24 -40 -4 0 39 62 107 93 103 17 -2 21 1 19 15 -3 15 1 17 17 12
15 -5 21 -2 21 9 0 15 14 20 47 19 7 -1 10 4 7 9 -3 5 -13 7 -21 4 -10 -4 -13
0 -11 12 2 9 12 17 23 17 11 1 25 4 31 8 23 13 26 -44 5 -63 -17 -14 -28 -48
-21 -60 7 -12 13 -11 29 4 12 11 21 25 21 33 0 18 20 38 45 47 28 8 51 64 37
87 -8 13 -8 20 3 29 19 16 37 3 30 -21 -8 -23 12 -33 42 -22 l21 8 -24 50
c-30 64 -31 89 -4 80 22 -7 26 6 10 34 -7 15 -4 21 18 30 24 11 25 14 9 22 -9
6 -21 8 -26 5 -12 -8 -41 3 -41 15 0 5 8 9 18 10 10 0 12 3 5 6 -7 2 -13 11
-13 19 0 28 -22 13 -38 -26 -9 -22 -24 -40 -32 -40 -8 0 -33 -12 -55 -25 -40
-25 -85 -33 -85 -16 0 6 5 13 10 16 6 4 8 11 4 16 -3 6 2 17 12 24 15 11 17
18 8 31 -21 36 -40 39 -69 11 l-28 -25 -18 21 -18 22 -1 -22 c0 -12 5 -25 10
-28 6 -3 10 -11 10 -18 0 -8 -3 -8 -11 0 -6 6 -18 9 -25 6 -8 -3 -14 0 -14 6
0 6 -4 11 -9 11 -5 0 -8 -8 -6 -17 2 -10 4 -22 4 -27 1 -4 11 -6 22 -3 17 4
19 3 10 -6 -15 -15 -14 -24 5 -31 22 -8 38 3 25 17 -7 9 -1 13 20 14 26 2 34
-6 30 -29 0 -5 5 -8 13 -8 20 0 28 -28 13 -50 -13 -22 -37 -27 -37 -9 0 8 -5
8 -15 -1 -8 -7 -26 -10 -40 -8 -14 3 -30 -1 -36 -9 -8 -9 -23 -11 -46 -7 -19
4 -53 7 -75 7 l-42 1 -2 -49 c-1 -37 -7 -52 -25 -66 -34 -26 -39 -24 -56 21
-15 37 -33 54 -33 30 0 -5 6 -10 13 -10 9 0 8 -3 -2 -9 -7 -5 -10 -14 -7 -20
4 -6 12 -9 17 -6 5 3 6 0 3 -8 -3 -9 4 -22 16 -30 l22 -15 -21 -14 c-22 -13
-30 -68 -10 -68 15 0 48 40 61 74 9 24 12 26 20 12 6 -10 5 -21 -2 -28 -32
-39 -50 -61 -50 -64 0 -2 8 -13 17 -24 20 -23 45 -27 37 -6 -9 22 17 31 32 11
8 -10 17 -15 21 -11 4 4 2 11 -6 15 -7 5 -12 12 -12 17 0 5 -7 9 -17 10 -35 2
-36 6 -2 14 39 9 51 -1 71 -58 10 -29 8 -36 -10 -56 -12 -12 -21 -29 -21 -37
0 -26 -45 -44 -75 -31 -22 10 -24 15 -14 33 9 17 8 20 -3 17 -7 -3 -15 -15
-16 -27 -2 -13 -12 -26 -23 -28 -10 -3 -19 -12 -19 -19 0 -8 -12 -19 -26 -24
-19 -8 -25 -16 -21 -30 6 -24 -17 -27 -39 -5 -20 19 -40 19 -48 0 -6 -15 6
-24 38 -29 8 -1 19 -6 23 -10 4 -5 -6 -5 -24 -2 -25 6 -34 3 -47 -16 -9 -12
-16 -16 -16 -9 0 10 -11 12 -41 8 -45 -6 -89 14 -89 39 0 16 9 17 29 5 15 -10
44 1 68 25 7 7 18 14 25 17 7 2 9 8 5 13 -4 4 -17 3 -27 -4 -17 -11 -20 -8
-31 28 -13 43 -18 47 -37 28 -9 -9 -12 -7 -12 10 0 17 -6 22 -26 22 -21 0 -24
-4 -19 -19 4 -15 -1 -24 -23 -35 -26 -13 -30 -13 -45 2 -10 9 -17 11 -17 5 0
-7 -12 -13 -27 -15 -17 -2 -28 -9 -28 -18 0 -8 -2 -17 -5 -20 -3 -3 -11 -22
-19 -43 -9 -29 -10 -42 -2 -50 8 -8 11 -6 11 6 0 9 6 17 14 17 24 0 63 -25 58
-38 -2 -7 -8 -10 -13 -7 -5 4 -6 0 -3 -8 3 -9 -4 -22 -18 -31 -21 -15 -23 -15
-37 11 -13 26 -14 26 -28 7 -14 -18 -15 -18 -27 -1 -17 22 -116 27 -141 7 -8
-7 -19 -9 -23 -5 -4 4 -1 10 6 12 17 6 15 33 -3 33 -8 0 -15 4 -15 8 0 18 31
70 45 76 22 8 18 30 -10 56 l-25 23 0 -26 c0 -14 -4 -29 -10 -32 -6 -4 -10 6
-10 22 0 32 -27 76 -41 68 -5 -4 -9 5 -9 18 0 24 31 57 64 70 22 9 16 29 -12
42 -12 5 -22 15 -22 22 0 16 32 17 47 2 16 -16 35 -1 28 22 -4 13 -2 19 8 19
21 0 16 21 -11 50 -16 18 -19 26 -10 32 7 4 13 20 14 35 1 15 4 35 8 44 4 10
2 19 -7 22 -10 4 -13 0 -11 -11 2 -9 -4 -28 -15 -41 l-19 -24 -30 24 c-17 13
-31 29 -31 36 -1 17 -59 -7 -65 -27 -4 -15 -7 10 -10 69 -1 21 2 27 10 20 6
-5 18 -7 27 -3 9 3 35 -10 62 -31 60 -45 71 -37 20 15 -30 31 -36 43 -27 52
20 20 14 38 -13 38 -15 0 -25 -6 -25 -14 0 -16 -28 -41 -36 -33 -4 3 1 13 10
22 19 19 21 36 4 30 -7 -2 -20 10 -28 29 -14 29 -14 33 0 33 8 0 21 -5 29 -11
10 -8 21 -1 48 28 41 45 36 62 -7 21 l-30 -29 -27 27 c-25 24 -25 27 -8 33 11
5 20 3 23 -4 4 -14 42 -17 42 -4 0 5 28 16 62 26 49 14 63 14 69 4 7 -10 12
-10 25 4 13 13 20 14 36 5 15 -10 20 -9 28 3 7 11 4 17 -8 21 -10 4 2 8 30 10
27 2 46 0 45 -6 -1 -5 13 -11 32 -13 23 -2 31 0 26 8 -4 6 -13 9 -21 6 -8 -3
-14 1 -14 8 0 16 48 28 56 15 7 -12 54 -11 54 1 0 6 7 10 15 10 8 0 15 4 15 9
0 16 -30 21 -56 9 -22 -10 -27 -9 -37 7 -25 45 -3 63 35 28 15 -13 23 -14 44
-5 13 7 31 12 39 12 17 0 20 -36 5 -45 -8 -5 -7 -11 0 -20 7 -8 9 -19 5 -25
-7 -11 5 -13 29 -4 11 4 13 11 6 23 -8 16 -4 18 33 19 27 0 35 -2 24 -7 -28
-11 -1 -27 48 -30 22 -1 60 -4 85 -7 25 -3 52 -6 60 -6 32 0 43 -8 31 -22 -9
-11 -8 -18 4 -30 20 -20 51 -21 58 -2 3 7 0 13 -6 13 -48 -1 -52 3 -19 23 51
31 63 27 56 -20 -7 -41 -2 -46 30 -34 18 7 22 34 5 34 -14 0 -7 42 7 47 10 3
74 -51 74 -62 0 -2 -9 -1 -20 2 -32 8 -23 -17 10 -30 17 -6 30 -17 30 -23 0
-7 13 -11 30 -10 35 2 41 20 7 21 -18 0 -23 6 -25 38 -2 20 -2 37 0 37 56 7
85 14 93 21 5 5 20 9 33 9 19 0 22 4 17 20 -7 22 5 26 23 8 9 -9 13 -8 17 5 4
9 13 13 20 11 7 -3 21 6 30 20 10 14 21 23 26 20 5 -3 6 2 3 10 -8 20 10 21
26 1 14 -16 40 -20 40 -6 0 5 -5 11 -11 13 -15 5 15 65 46 93 47 42 66 55 79
55 8 0 16 4 18 8 2 5 17 15 33 23 22 10 31 22 33 44 2 17 14 40 28 53 13 13
24 29 24 37 0 7 5 26 11 42 10 27 11 27 24 9 10 -13 11 -24 5 -37 -13 -24 -12
-42 3 -63 17 -23 47 -11 47 20 0 13 4 24 10 24 5 0 7 7 4 15 -4 10 0 15 12 16
15 0 14 2 -5 10 -19 7 -21 12 -11 24 6 8 9 23 5 36 -5 13 -2 25 6 30 10 6 10
14 -3 41 -9 18 -22 47 -29 63 -15 33 -15 33 -48 57 -20 14 -21 19 -11 38 9 16
9 25 1 33 -8 8 -11 6 -11 -6 0 -9 -5 -17 -10 -17 -16 0 -24 29 -11 44 8 10 4
16 -17 27 -15 8 -31 20 -35 26 -4 7 -12 13 -17 13 -30 0 -113 52 -125 78 -6
13 -16 20 -25 17 -8 -3 -32 11 -52 29 -31 29 -47 35 -93 39 -38 3 -58 1 -66
-9 -6 -8 -15 -12 -19 -9 -5 3 -11 1 -15 -5 -3 -5 2 -10 12 -10 11 0 23 -12 30
-30 9 -23 18 -30 37 -30 15 0 29 -7 32 -15 4 -8 13 -15 21 -15 10 0 12 -6 8
-20 -7 -22 10 -28 19 -7 3 9 9 7 19 -5 8 -10 22 -18 31 -18 13 0 14 -3 5 -19
-25 -39 17 -77 51 -46 19 18 20 17 20 -12 0 -22 6 -33 25 -41 16 -7 25 -20 25
-34 0 -13 9 -29 20 -36 11 -7 20 -19 20 -27 0 -21 29 -19 38 3 5 13 8 8 12
-18 4 -31 2 -36 -20 -40 -24 -5 -25 -9 -23 -65 1 -33 5 -70 8 -82 3 -12 1 -33
-4 -47 -18 -45 -80 -12 -82 43 0 14 -3 20 -6 14 -6 -18 -23 -16 -23 1 0 8 -6
17 -12 20 -10 5 -10 7 0 12 18 9 14 24 -7 24 -10 0 -21 7 -25 15 -3 8 -12 15
-21 15 -19 0 -20 -16 0 -24 8 -3 15 -16 15 -30 0 -13 7 -26 15 -30 8 -3 15
-10 15 -16 0 -14 -27 -13 -33 3 -2 6 -8 8 -13 4 -4 -4 -2 -17 5 -29 9 -14 10
-23 2 -31 -8 -8 -11 -8 -11 1 0 6 -6 9 -14 6 -11 -4 -13 0 -9 15 6 23 -6 28
-25 9 -9 -9 -15 -9 -24 0 -9 9 -7 12 10 12 17 0 22 6 22 25 0 29 -5 30 -40 10
-29 -17 -64 -20 -55 -5 3 6 15 10 26 10 11 0 17 5 14 10 -3 6 -14 10 -24 10
-9 0 -25 6 -35 13 -18 13 -18 15 -1 41 10 14 15 30 11 33 -12 12 -35 -32 -36
-67 l-1 -35 -19 23 c-11 14 -28 22 -42 21 -40 -4 -108 13 -108 27 0 7 -6 11
-14 8 -8 -3 -17 0 -21 5 -3 6 -10 9 -14 7 -4 -3 -25 1 -47 9 -23 8 -58 11 -86
8 -31 -4 -53 -1 -62 7 -11 8 -24 9 -48 2 -18 -5 -80 -9 -138 -8 -86 2 -111 -1
-138 -16 -18 -10 -38 -16 -43 -12 -5 3 -15 1 -22 -4 -17 -13 -77 -3 -84 15 -5
11 -9 11 -24 -3 -16 -14 -24 -15 -44 -6 -14 6 -32 9 -40 6 -9 -4 -24 1 -34 10
-15 13 -22 14 -44 3 -15 -6 -27 -18 -27 -25 0 -7 -5 -10 -11 -7 -5 4 -8 12 -6
18 2 7 -2 17 -9 22 -10 8 -10 22 -2 63 6 28 14 52 18 52 17 0 42 -41 38 -63
-5 -24 -4 -24 24 -8 18 10 33 30 40 54 9 29 16 37 35 37 13 0 26 7 29 15 4 8
15 15 26 15 10 0 17 4 13 9 -12 21 13 27 150 35 50 3 90 6 90 7 0 0 9 2 20 4
26 5 45 -12 45 -41 0 -13 5 -24 10 -24 6 0 10 9 10 20 0 26 8 25 36 -5 13 -14
32 -25 44 -25 12 0 20 -7 20 -17 0 -15 1 -15 13 1 12 17 15 15 45 -18 18 -20
32 -43 32 -51 0 -19 11 -19 35 -1 17 12 18 16 5 32 -8 11 0 6 17 -11 17 -16
28 -35 26 -42 -3 -7 2 -13 11 -13 9 0 16 5 16 11 0 5 8 9 18 8 32 -3 34 1 17
27 -9 14 -14 28 -12 31 8 7 47 -21 47 -34 0 -22 39 -34 85 -27 34 5 45 3 45
-7 0 -7 8 -21 18 -32 17 -19 16 -20 -10 -13 -30 7 -39 -8 -12 -18 25 -9 54 -7
54 4 0 6 8 10 18 8 10 -2 16 2 14 11 -2 8 2 17 9 21 14 9 3 30 -17 30 -8 0
-14 9 -14 20 0 25 18 26 36 3 13 -17 15 -17 33 4 12 14 25 20 39 17 23 -6 62
11 62 27 0 12 -51 8 -81 -5 -12 -5 -18 -1 -22 13 -7 26 -17 26 -46 0 -12 -11
-28 -18 -36 -15 -7 2 -16 0 -19 -7 -2 -7 -5 -2 -5 10 -1 12 -5 24 -10 27 -4 3
-6 17 -3 31 l4 25 -42 -15 c-54 -19 -70 -19 -70 1 0 12 7 14 30 9 23 -5 30 -3
30 9 0 8 -6 13 -12 11 -7 -2 -31 11 -52 30 -37 33 -38 36 -23 53 10 10 17 24
17 30 0 7 5 12 10 12 21 0 9 48 -20 75 -16 16 -30 33 -30 37 0 5 -10 22 -21
37 -12 16 -19 33 -16 38 9 14 -59 77 -72 69 -6 -4 -11 -1 -11 7 0 15 -64 49
-74 40 -15 -15 -5 -35 15 -30 16 4 20 1 17 -16 -1 -12 1 -28 5 -34 5 -7 4 -13
-1 -13 -5 0 -12 -9 -15 -20 -8 -30 -33 -24 -62 14 -36 47 -46 87 -28 111 7 11
21 20 31 20 13 0 18 10 20 43 2 25 -1 42 -7 42 -6 0 -11 -12 -12 -27 0 -23 -3
-20 -14 16 -15 48 -13 61 11 61 8 0 12 5 9 10 -3 6 -17 7 -31 4 -23 -6 -27 -1
-23 33 0 4 -8 10 -18 14 -19 7 -19 8 33 24 13 4 12 10 -10 35 -14 17 -23 37
-19 45 3 8 -2 26 -11 40 -9 13 -16 38 -16 55 0 17 -4 29 -9 26 -5 -3 -14 1
-21 10 -7 8 -19 13 -27 10 -17 -7 -17 28 0 43 16 13 27 5 27 -21 0 -21 15 -24
23 -5 12 32 -12 83 -27 59 -7 -12 -66 -13 -66 -1 0 6 -4 8 -8 5 -4 -3 -25 -1
-45 3 -32 8 -38 6 -51 -15 -10 -14 -12 -25 -6 -29 14 -9 12 -82 -2 -92 -7 -4
-22 -8 -33 -8 -11 0 -21 -8 -23 -17 -2 -12 3 -18 16 -18 30 0 56 -62 49 -119
-5 -35 -3 -42 5 -30 9 14 15 14 55 1 34 -11 43 -18 37 -31 -17 -42 -16 -50 15
-66 30 -15 31 -17 16 -38 -8 -12 -15 -32 -15 -44 0 -14 -6 -23 -15 -23 -8 0
-15 6 -15 14 0 8 -5 18 -12 22 -8 5 -9 2 -5 -9 5 -12 1 -17 -12 -17 -10 0 -26
-10 -34 -22 l-16 -23 -7 23 c-5 19 -9 20 -22 10 -13 -11 -14 -10 -8 10 6 17 4
21 -8 16 -22 -8 -27 -32 -9 -42 10 -6 14 -16 10 -27 -5 -12 -14 -15 -36 -10
-17 4 -32 2 -36 -5 -4 -7 -19 -9 -36 -5 -18 4 -29 2 -29 -4 0 -12 -54 -4 -85
13 -11 6 -28 11 -39 11 -11 0 -26 14 -37 34 -10 19 -25 39 -34 43 -20 12 -19
44 3 66 9 9 17 31 16 47 -1 38 6 51 17 34 7 -11 9 -11 9 -1 0 7 4 10 10 7 5
-3 19 3 31 13 17 17 18 22 6 33 -7 7 -11 23 -9 36 4 19 7 21 18 12 15 -12 44
3 44 24 0 6 7 18 16 28 12 14 13 22 4 38 -6 12 -8 26 -4 32 3 6 8 43 9 82 3
58 0 75 -17 98 -11 15 -26 25 -32 23 -7 -3 -18 6 -25 19 -9 17 -21 24 -42 23
-17 -1 -29 -6 -29 -15 0 -10 8 -12 31 -7 22 4 29 2 26 -7 -5 -16 -67 -10 -88
9 -9 8 -24 35 -34 60 -15 40 -15 47 -2 62 26 31 -5 72 -54 72 -15 0 -30 -6
-32 -12 -3 -7 -6 1 -6 19 -1 25 -10 39 -46 69 -25 20 -45 43 -45 51 0 10 -7
14 -20 10 -11 -3 -20 -2 -20 2 0 4 -13 8 -30 8 -18 0 -30 -6 -30 -14 0 -15
-16 -17 -25 -3 -4 6 -32 9 -66 7 -49 -3 -62 0 -70 14 -12 24 -11 29 5 29 8 0
17 -8 19 -17 3 -12 5 -9 6 8 0 15 8 32 16 39 19 15 19 25 1 43 -21 20 -24 62
-6 63 8 1 21 2 28 3 9 1 11 8 7 20 -4 14 0 23 14 30 16 9 21 6 32 -22 l13 -32
3 28 c3 16 -1 35 -7 42 -12 15 -6 85 7 85 4 0 15 -7 25 -17 13 -11 18 -12 18
-3 0 7 10 21 22 32 19 16 20 21 8 29 -12 8 -10 9 6 4 15 -4 24 1 33 17 11 22
11 22 6 -4 -3 -16 -1 -28 5 -28 5 0 10 13 10 30 0 24 3 28 18 23 9 -4 21 -12
25 -19 6 -11 12 -10 27 3 15 13 17 20 8 30 -17 21 19 42 72 43 34 0 48 5 58
20 15 24 35 26 52 5 8 -10 17 -12 24 -6 6 5 15 9 21 9 5 0 11 5 13 11 2 6 -1
11 -7 11 -6 0 -11 3 -11 8 0 4 38 7 85 7 84 0 85 0 86 -25 1 -14 1 -30 0 -36
-1 -6 6 -11 14 -11 11 0 15 11 15 37 0 44 9 56 25 33 15 -20 39 -8 32 17 -3
13 0 17 9 13 7 -2 14 -18 16 -35z m3528 2 c0 -5 -2 -10 -4 -10 -3 0 -8 5 -11
10 -3 6 -1 10 4 10 6 0 11 -4 11 -10z m470 -65 c15 -9 12 -25 -5 -25 -8 0 -15
5 -15 10 0 6 -9 10 -20 10 -11 0 -20 5 -20 10 0 10 41 7 60 -5z m120 -9 c0 -8
-4 -18 -10 -21 -5 -3 -10 3 -10 14 0 12 5 21 10 21 6 0 10 -6 10 -14z m140
-51 c0 -8 -4 -15 -10 -15 -5 0 -10 7 -10 15 0 8 5 15 10 15 6 0 10 -7 10 -15z
m-3650 -55 c-19 -13 -30 -13 -30 0 0 6 10 10 23 10 18 0 19 -2 7 -10z m60 -5
c-7 -9 -15 -13 -19 -10 -3 3 1 10 9 15 21 14 24 12 10 -5z m-2600 -50 c-7 -8
-16 -15 -21 -15 -5 0 -6 7 -3 15 4 8 13 15 21 15 13 0 13 -3 3 -15z m6156 -42
c-10 -10 -19 5 -10 18 6 11 8 11 12 0 2 -7 1 -15 -2 -18z m-3329 -49 c-3 -3
-12 -4 -19 -1 -8 3 -5 6 6 6 11 1 17 -2 13 -5z m3299 -51 c-10 -10 -19 5 -10
18 6 11 8 11 12 0 2 -7 1 -15 -2 -18z m72 5 c-3 -7 -11 -13 -18 -13 -7 0 -15
6 -17 13 -3 7 4 12 17 12 13 0 20 -5 18 -12z m-3340 -32 c-4 -18 0 -26 14 -29
22 -6 25 -47 3 -47 -21 0 -30 4 -28 12 2 4 -6 12 -17 18 -26 14 -26 40 0 40
11 0 20 7 20 15 0 8 3 15 6 15 4 0 4 -11 2 -24z m107 -34 c-3 -3 -16 5 -28 17
l-22 23 28 -17 c15 -10 25 -20 22 -23z m-1855 -22 c0 -5 -7 -10 -16 -10 -8 0
-12 5 -9 10 3 6 10 10 16 10 5 0 9 -4 9 -10z m4900 -9 c0 -6 -4 -13 -10 -16
-5 -3 -10 1 -10 9 0 9 5 16 10 16 6 0 10 -4 10 -9z m320 -51 c0 -5 -2 -10 -4
-10 -3 0 -8 5 -11 10 -3 6 -1 10 4 10 6 0 11 -4 11 -10z m-6803 -62 c-3 -8 -6
-5 -6 6 -1 11 2 17 5 13 3 -3 4 -12 1 -19z m2707 -62 c-3 -9 -10 -16 -15 -16
-14 0 -11 28 4 33 16 6 19 3 11 -17z m-2989 -76 c-3 -5 -10 -10 -16 -10 -5 0
-9 5 -9 10 0 6 7 10 16 10 8 0 12 -4 9 -10z m2270 0 c-3 -5 -11 -10 -16 -10
-6 0 -7 5 -4 10 3 6 11 10 16 10 6 0 7 -4 4 -10z m4810 -40 c-3 -5 -13 -10
-21 -10 -8 0 -14 5 -14 10 0 6 9 10 21 10 11 0 17 -4 14 -10z m45 -10 c0 -5
-4 -10 -10 -10 -5 0 -10 5 -10 10 0 6 5 10 10 10 6 0 10 -4 10 -10z m-7170
-19 c0 -10 -24 -21 -46 -21 -8 0 -14 4 -14 9 0 8 10 12 53 20 4 0 7 -3 7 -8z
m2186 -35 c30 -1 31 -2 26 -39 -4 -33 -2 -39 17 -44 11 -3 21 -11 21 -19 0 -7
10 -20 22 -28 21 -15 21 -19 11 -58 -7 -24 -15 -52 -19 -62 -6 -16 -4 -18 17
-13 29 7 89 -12 114 -36 15 -15 16 -22 6 -41 -7 -12 -11 -29 -10 -37 4 -19
-10 -59 -21 -59 -15 0 -24 24 -11 28 9 3 8 10 -4 28 -9 14 -13 29 -10 34 3 6
0 10 -7 10 -7 1 -37 23 -66 49 -35 33 -65 51 -90 56 -20 3 -45 8 -54 11 -12 4
-18 0 -18 -10 0 -9 7 -16 15 -16 8 0 15 -3 15 -6 0 -13 -63 -84 -74 -84 -7 0
-26 -7 -43 -15 -16 -8 -44 -18 -61 -21 -26 -5 -32 -3 -32 11 0 16 -2 16 -25 1
-32 -21 -35 -20 -35 7 0 12 -9 28 -20 35 -16 10 -20 10 -20 -2 0 -8 7 -17 16
-20 8 -3 12 -11 8 -18 -5 -8 -12 -5 -24 10 -16 19 -23 20 -69 13 -57 -9 -79 4
-73 43 3 16 1 18 -8 9 -7 -6 -19 -9 -26 -6 -9 3 -14 -2 -14 -16 0 -12 4 -21
10 -21 6 0 5 -9 -1 -24 -11 -24 -61 -43 -67 -25 -2 5 -15 9 -30 9 -20 0 -23
-3 -14 -12 18 -18 15 -28 -9 -28 -18 0 -20 4 -14 23 3 12 10 35 14 51 6 28 31
49 31 27 0 -6 7 -8 15 -5 8 4 15 14 15 23 0 9 5 22 10 27 6 6 12 36 14 67 4
62 14 87 27 66 6 -11 12 -10 28 5 11 10 17 24 15 31 -3 7 0 16 5 20 6 3 9 11
5 16 -3 6 4 7 19 4 18 -5 29 -1 39 14 13 18 24 21 79 19 43 -2 68 -8 76 -18
10 -13 12 -11 18 12 6 24 9 25 26 15 10 -6 19 -17 19 -24 0 -16 27 -17 32 -1
2 6 15 13 28 15 12 2 35 10 49 17 14 8 37 12 51 9 14 -3 39 -6 56 -7z m62 -57
c-3 -8 -7 -3 -11 10 -4 17 -3 21 5 13 5 -5 8 -16 6 -23z m-2246 -1 c-7 -7 -12
-8 -12 -2 0 14 12 26 19 19 2 -3 -1 -11 -7 -17z m3953 2 c8 -13 -5 -13 -25 0
-13 8 -13 10 2 10 9 0 20 -4 23 -10z m-4038 -26 c-3 -3 -12 -4 -19 -1 -8 3 -5
6 6 6 11 1 17 -2 13 -5z m-77 -14 c0 -5 -5 -10 -11 -10 -5 0 -7 5 -4 10 3 6 8
10 11 10 2 0 4 -4 4 -10z m-490 -36 c0 -8 -4 -12 -10 -9 -5 3 -10 10 -10 16 0
5 5 9 10 9 6 0 10 -7 10 -16z m397 -30 c-9 -9 -28 6 -21 18 4 6 10 6 17 -1 6
-6 8 -13 4 -17z m2633 1 c24 -15 24 -15 -19 -13 -25 2 -46 9 -49 16 -5 17 37
15 68 -3z m380 -5 c0 -5 -2 -10 -4 -10 -3 0 -8 5 -11 10 -3 6 -1 10 4 10 6 0
11 -4 11 -10z m-2840 -56 c0 -8 -4 -13 -9 -11 -5 1 -16 -7 -25 -18 -20 -27
-44 -7 -26 21 14 23 60 28 60 8z m-245 -4 c-3 -5 -13 -10 -21 -10 -8 0 -14 -7
-14 -16 0 -8 -5 -12 -10 -9 -14 8 -3 24 24 35 28 12 28 12 21 0z m1915 -9 c0
-21 -13 -41 -26 -41 -17 0 -18 22 -2 38 14 14 28 16 28 3z m-64 -38 c-10 -10
-19 5 -10 18 6 11 8 11 12 0 2 -7 1 -15 -2 -18z m-1744 -38 c0 -5 -5 -11 -11
-13 -6 -2 -11 4 -11 13 0 9 5 15 11 13 6 -2 11 -8 11 -13z m50 -35 c5 -33 1
-36 -24 -16 -21 15 -23 27 -6 44 16 16 25 7 30 -28z m2238 -4 c0 -11 -19 -15
-25 -6 -3 5 1 10 9 10 9 0 16 -2 16 -4z m-2524 -61 c15 -23 10 -37 -11 -28
-17 6 -29 58 -18 75 5 10 9 8 11 -7 3 -10 11 -29 18 -40z m1939 15 c3 -5 -1
-10 -9 -10 -9 0 -16 5 -16 10 0 6 4 10 9 10 6 0 13 -4 16 -10z m-1715 -30 c0
-5 -7 -10 -16 -10 -8 0 -12 5 -9 10 3 6 10 10 16 10 5 0 9 -4 9 -10z m3946
-28 c-4 -3 -11 0 -16 8 -15 24 -11 33 6 15 9 -9 13 -19 10 -23z m-2240 -7
c-19 -29 -46 -33 -46 -7 0 26 11 34 26 21 11 -9 15 -7 20 5 4 9 9 15 12 12 2
-3 -3 -17 -12 -31z m2105 20 c1 -5 5 -15 11 -22 16 -20 -1 -33 -42 -33 -21 0
-42 -4 -45 -10 -7 -11 -125 -6 -169 7 -26 8 -27 10 -11 23 14 11 20 12 37 1
17 -10 22 -10 29 0 4 8 11 10 15 7 3 -4 18 -1 33 6 14 8 40 11 57 9 20 -3 35
1 44 12 14 17 41 17 41 0z m79 -14 c0 -5 -6 -14 -14 -20 -10 -8 -16 -8 -25 2
-6 8 -8 17 -4 20 9 10 43 8 43 -2z m-3952 -27 c-9 -9 -21 -13 -27 -9 -16 10
-3 25 22 25 20 0 20 -1 5 -16z m2610 -11 c-2 -12 -14 -18 -41 -18 -41 -2 -53
21 -14 28 48 9 59 7 55 -10z m-2858 -2 c0 -6 -4 -13 -10 -16 -5 -3 -10 1 -10
9 0 9 5 16 10 16 6 0 10 -4 10 -9z m221 -21 c5 0 9 -4 9 -10 0 -12 -47 -13
-54 -1 -8 12 6 22 22 16 7 -3 18 -5 23 -5z m1753 -15 c-6 -16 -24 -21 -24 -7
0 11 11 22 21 22 5 0 6 -7 3 -15z m575 -2 c-7 -10 -14 -20 -15 -21 -1 -2 -7 6
-14 17 -10 19 -8 21 16 21 24 0 25 -2 13 -17z m311 -38 c-12 -15 -77 -31 -86
-22 -3 3 -1 15 5 26 10 18 15 19 38 8 22 -10 28 -9 37 6 6 9 13 12 14 7 2 -6
-1 -17 -8 -25z m-357 11 c4 -10 17 -11 58 -5 59 9 69 6 69 -22 0 -22 -10 -24
-29 -6 -11 10 -14 9 -18 -1 -4 -10 -8 -10 -21 0 -12 10 -16 10 -19 1 -3 -8
-23 -13 -51 -13 -41 1 -45 2 -30 14 10 7 15 16 12 19 -7 7 4 27 16 27 4 0 10
-6 13 -14z m217 4 c0 -5 -8 -10 -17 -11 -10 0 -26 -2 -36 -4 -15 -3 -16 -1 -6
11 13 16 59 19 59 4z m-2805 -30 c-10 -11 -20 -18 -23 -15 -7 6 18 35 31 35 5
0 2 -9 -8 -20z m252 -2 c-3 -8 -6 -5 -6 6 -1 11 2 17 5 13 3 -3 4 -12 1 -19z
m-95 -23 c-6 -34 -22 -42 -39 -20 -21 30 -16 45 16 45 25 0 28 -3 23 -25z
m2248 15 c0 -5 -4 -10 -10 -10 -5 0 -10 5 -10 10 0 6 5 10 10 10 6 0 10 -4 10
-10z m90 -10 c0 -5 -5 -10 -11 -10 -5 0 -7 5 -4 10 3 6 8 10 11 10 2 0 4 -4 4
-10z m350 -10 c0 -11 -4 -20 -9 -20 -18 0 -20 -44 -4 -63 16 -17 16 -18 -5
-24 -12 -3 -24 -13 -27 -23 -3 -10 -17 -30 -30 -46 -14 -16 -25 -34 -25 -40 0
-7 -7 -25 -15 -40 -8 -16 -15 -36 -15 -44 0 -9 -7 -25 -15 -37 -11 -16 -12
-22 -2 -26 9 -3 9 -7 -1 -19 -9 -11 -10 -18 -2 -23 18 -11 11 -54 -10 -65 -22
-12 -25 -58 -5 -72 5 -4 6 -11 1 -15 -4 -4 -13 0 -20 10 -7 9 -19 17 -25 17
-18 0 -43 -28 -36 -40 3 -5 -3 -10 -14 -10 -12 0 -21 -4 -21 -8 0 -5 -13 -10
-30 -11 -59 -3 -70 -5 -70 -13 0 -4 7 -8 15 -8 21 0 19 -22 -5 -48 -26 -27
-30 -28 -27 -1 3 29 -23 37 -30 10 -3 -12 -12 -21 -19 -21 -8 0 -14 -9 -14
-19 0 -28 -19 -36 -34 -15 -11 15 -9 23 13 55 14 20 31 36 36 35 6 0 10 16 10
36 1 20 8 45 18 56 9 10 17 26 17 35 0 12 9 15 44 12 24 -2 59 -11 76 -20 35
-18 60 -14 60 9 0 8 6 17 13 19 6 3 -3 3 -22 0 -28 -5 -37 -2 -52 18 -15 20
-19 21 -19 7 0 -10 -4 -18 -10 -18 -14 0 -13 27 1 36 7 4 -2 13 -22 22 -24 12
-34 13 -37 4 -2 -7 -8 -12 -14 -12 -6 0 -26 -16 -45 -35 -19 -19 -39 -35 -44
-35 -18 0 -41 -29 -33 -41 4 -8 3 -9 -4 -5 -6 4 -19 -2 -29 -14 -10 -11 -23
-20 -30 -20 -7 0 -13 -7 -13 -15 0 -8 -6 -15 -14 -15 -8 0 -23 -14 -33 -30
-10 -17 -23 -28 -29 -26 -20 7 -88 -58 -89 -85 -4 -93 -5 -99 -20 -99 -14 0
-14 -3 -2 -27 8 -16 17 -48 21 -73 4 -25 16 -60 27 -78 10 -18 17 -37 14 -43
-4 -5 -4 -9 -1 -9 2 0 12 -3 21 -6 13 -5 16 -2 13 16 -1 13 3 25 10 27 7 3 12
-5 12 -20 0 -36 48 -90 74 -83 11 3 26 0 33 -6 10 -8 13 -6 13 6 0 15 2 15 25
0 14 -9 24 -22 22 -28 -4 -13 70 -69 83 -61 5 3 11 1 14 -4 7 -11 -22 -23 -35
-15 -5 3 -9 -2 -9 -10 0 -21 36 -56 57 -56 14 0 12 -5 -10 -27 -23 -24 -30
-26 -47 -15 -12 7 -20 8 -20 2 0 -5 5 -10 10 -10 6 0 10 -5 10 -11 0 -6 -7 -8
-17 -5 -21 9 -33 -12 -23 -39 9 -24 3 -39 -21 -47 -23 -9 -39 10 -39 44 0 30
-1 31 -24 22 -12 -5 -13 -10 -5 -25 5 -11 7 -24 4 -30 -10 -16 -36 11 -30 31
7 22 -16 42 -35 30 -11 -7 -11 -11 -1 -24 9 -11 10 -20 2 -35 -15 -28 -15 -28
29 -51 27 -14 38 -25 34 -35 -4 -8 -13 -15 -22 -15 -8 0 -13 -3 -9 -6 3 -3 7
-4 10 -2 6 4 47 -33 47 -43 0 -4 -10 -9 -22 -11 -19 -2 -23 -10 -25 -41 -1
-36 1 -38 22 -33 30 8 39 -5 21 -30 -11 -14 -17 -16 -28 -7 -10 9 -19 7 -38
-7 -14 -11 -32 -20 -42 -20 -9 0 -18 -5 -20 -11 -6 -18 -33 1 -45 31 -10 28
-43 43 -43 20 0 -5 -4 -10 -10 -10 -18 0 -10 19 11 25 14 5 31 0 50 -14 15
-12 33 -21 39 -21 19 0 5 25 -16 28 -30 6 -39 19 -24 37 7 9 8 15 2 15 -6 0
-12 -6 -15 -12 -3 -10 -11 -10 -33 -3 -22 8 -28 16 -26 33 2 16 -2 22 -16 22
-11 0 -35 13 -53 30 -31 27 -32 30 -12 30 12 0 25 5 28 10 3 6 -2 10 -11 10
-21 0 -54 28 -54 46 0 7 -9 16 -20 19 -15 5 -18 11 -11 22 13 23 1 53 -20 53
-12 0 -19 7 -19 20 0 11 7 20 15 20 26 0 29 30 5 55 -28 30 -22 65 16 90 24
15 28 16 42 1 14 -13 14 -19 2 -41 -12 -23 -12 -28 0 -35 8 -6 23 -10 32 -10
9 0 23 -8 30 -18 7 -10 21 -21 31 -25 9 -3 17 -14 17 -23 0 -21 28 -54 45 -54
7 0 20 11 29 25 15 22 45 38 32 16 -3 -5 1 -14 9 -21 13 -11 15 -8 15 14 0 29
-25 36 -49 14 -11 -11 -13 -10 -8 4 3 10 2 20 -3 23 -6 4 -10 -2 -10 -11 0
-15 -2 -16 -12 -5 -11 10 -10 15 5 25 9 7 17 19 17 26 0 7 -7 10 -17 5 -31
-11 -38 -10 -39 5 -1 34 -18 67 -52 98 -32 30 -36 31 -52 17 -15 -13 -21 -14
-44 -1 l-27 13 31 6 c31 7 42 27 15 27 -12 0 -15 9 -13 37 1 23 -2 38 -11 41
-10 3 -11 6 -1 12 18 11 4 64 -15 56 -11 -4 -15 3 -15 29 0 18 -4 37 -10 40
-19 11 -10 22 14 18 17 -4 28 2 40 18 21 30 20 49 -1 49 -15 0 -15 2 -4 9 10
6 12 21 8 50 -4 34 -2 41 14 46 29 10 24 60 -16 142 -19 40 -35 77 -35 82 0 5
12 19 26 30 17 14 24 26 20 37 -4 9 -1 23 6 32 10 12 10 16 1 19 -15 5 -18 33
-4 33 5 0 11 -6 14 -12 2 -8 8 -9 13 -4 5 5 4 11 -3 13 -7 3 -13 18 -13 33 0
31 27 54 52 45 9 -4 14 6 15 31 2 48 9 64 27 64 9 0 12 -7 9 -20 -3 -11 0 -20
6 -20 12 0 13 2 15 43 1 16 -3 27 -11 27 -16 0 -16 2 -1 35 6 14 17 25 24 25
7 0 14 5 16 11 4 12 69 28 115 29 26 0 31 -3 26 -17 -5 -13 -2 -15 15 -11 24
7 28 -2 10 -20 -9 -9 -9 -12 0 -12 6 0 16 9 22 20 9 17 14 18 31 9 12 -6 32
-8 45 -5 17 5 24 2 24 -9 0 -20 30 -19 59 1 17 12 35 15 72 10 26 -4 56 -2 66
3 63 34 150 71 179 77 19 3 34 10 34 15 0 5 5 9 10 9 6 0 10 -9 10 -20z
m-2590 -6 c0 -3 -11 -25 -25 -50 -14 -25 -25 -52 -25 -60 0 -9 -6 -14 -12 -11
-14 4 -15 21 -3 50 5 13 2 17 -14 17 -12 0 -21 6 -21 14 0 20 40 32 50 16 6
-10 12 -7 21 9 13 19 29 28 29 15z m8038 -16 c-6 -16 -36 -34 -44 -25 -9 9 15
37 33 37 8 0 13 -5 11 -12z m-6183 -28 c0 -8 -10 -16 -22 -18 -25 -4 -26 -2
-17 23 8 19 39 16 39 -5z m1470 -49 c-3 -12 -10 -21 -15 -21 -5 0 -4 11 2 25
13 29 23 26 13 -4z m-1528 -3 c-3 -8 -6 -5 -6 6 -1 11 2 17 5 13 3 -3 4 -12 1
-19z m-2057 -29 c0 -5 -9 -9 -20 -9 -19 0 -26 11 -14 23 8 8 34 -3 34 -14z
m3616 -24 c8 -34 0 -40 -25 -19 -15 13 -18 21 -9 31 16 20 27 16 34 -12z
m-3446 -16 c0 -14 -7 -19 -25 -19 -26 0 -26 0 -8 24 20 27 33 25 33 -5z m3620
1 c8 -5 11 -12 8 -16 -10 -9 -38 3 -38 16 0 12 10 13 30 0z m-3840 -35 c0 -8
-4 -15 -10 -15 -5 0 -10 7 -10 15 0 8 5 15 10 15 6 0 10 -7 10 -15z m-120 -29
c0 -8 -4 -18 -10 -21 -5 -3 -10 3 -10 14 0 12 5 21 10 21 6 0 10 -6 10 -14z
m3920 10 c0 -3 -4 -8 -10 -11 -5 -3 -10 -1 -10 4 0 6 5 11 10 11 6 0 10 -2 10
-4z m-3750 -56 c0 -5 -4 -10 -10 -10 -5 0 -10 5 -10 10 0 6 5 10 10 10 6 0 10
-4 10 -10z m-290 -25 c0 -8 -7 -15 -15 -15 -16 0 -20 12 -8 23 11 12 23 8 23
-8z m110 -5 c0 -5 -4 -10 -10 -10 -5 0 -10 5 -10 10 0 6 5 10 10 10 6 0 10 -4
10 -10z m70 6 c0 -3 -4 -8 -10 -11 -5 -3 -10 -1 -10 4 0 6 5 11 10 11 6 0 10
-2 10 -4z m200 -16 c0 -5 -5 -10 -11 -10 -5 0 -7 5 -4 10 3 6 8 10 11 10 2 0
4 -4 4 -10z m8610 -16 c0 -8 -4 -12 -10 -9 -5 3 -10 10 -10 16 0 5 5 9 10 9 6
0 10 -7 10 -16z m-8680 2 c0 -3 -4 -8 -10 -11 -5 -3 -10 -1 -10 4 0 6 5 11 10
11 6 0 10 -2 10 -4z m30 -69 c0 -16 -35 -1 -38 16 -3 16 -1 17 17 5 12 -7 21
-17 21 -21z m8830 9 c0 -3 -4 -8 -10 -11 -5 -3 -10 -1 -10 4 0 6 5 11 10 11 6
0 10 -2 10 -4z m-9045 -37 c11 -16 -4 -59 -20 -59 -17 0 -20 16 -4 26 6 3 9
15 6 25 -5 20 7 26 18 8z m2679 -13 c-3 -9 -10 -16 -15 -16 -14 0 -11 28 4 33
16 6 19 3 11 -17z m-2634 -6 c0 -11 -4 -20 -9 -20 -14 0 -23 18 -16 30 10 17
25 11 25 -10z m4010 -41 c0 -11 -4 -17 -10 -14 -5 3 -10 2 -10 -3 0 -11 -30
-25 -37 -18 -4 3 47 56 54 56 2 0 3 -9 3 -21z m-4237 -13 c19 7 23 -12 8 -35
-8 -12 -13 -12 -24 -3 -12 10 -16 9 -20 -2 -4 -9 1 -20 11 -26 14 -8 15 -11 3
-19 -8 -5 -20 -7 -27 -4 -17 6 -27 35 -15 42 5 4 15 20 21 36 8 20 14 25 19
17 4 -7 15 -10 24 -6z m323 3 c3 -6 -1 -18 -10 -27 -15 -15 -16 -14 -16 11 0
27 13 36 26 16z m8688 -4 c-4 -8 -8 -15 -10 -15 -2 0 -4 7 -4 15 0 8 4 15 10
15 5 0 7 -7 4 -15z m-8754 -33 c34 5 41 -14 15 -48 -14 -19 -14 -19 -15 3 0
25 -15 39 -25 23 -9 -14 -35 7 -35 27 0 13 3 13 15 3 8 -7 28 -10 45 -8z
m-350 -6 c0 -2 -7 -9 -15 -16 -12 -10 -15 -10 -15 4 0 9 7 16 15 16 8 0 15 -2
15 -4z m9320 -16 c0 -5 -4 -10 -10 -10 -5 0 -10 5 -10 10 0 6 5 10 10 10 6 0
10 -4 10 -10z m-9302 -33 c-31 -16 -42 -27 -49 -45 -6 -16 -5 -22 6 -22 9 0
12 -6 9 -15 -7 -16 11 -21 21 -6 7 12 63 -17 86 -44 26 -30 6 -30 -41 0 -35
22 -39 23 -28 6 26 -42 -18 -39 -65 5 -19 18 -26 31 -21 43 4 9 12 31 18 49 6
18 16 30 22 28 7 -3 15 5 18 17 6 21 7 21 17 4 6 -10 9 -19 7 -20z m167 12 c9
-29 -4 -38 -21 -15 -18 25 -18 36 0 36 8 0 18 -9 21 -21z m55 -21 c0 -5 -4 -8
-10 -8 -5 0 -10 10 -10 23 0 18 2 19 10 7 5 -8 10 -18 10 -22z m-116 7 c-4 -9
0 -15 10 -15 10 0 16 -8 15 -22 0 -13 -3 -17 -6 -10 -2 6 -9 12 -14 12 -11 0
-12 -33 -2 -44 11 -11 14 -46 3 -46 -6 0 -10 7 -10 15 0 8 -4 15 -10 15 -9 0
-12 88 -3 103 8 13 22 7 17 -8z m2248 -13 c11 -13 10 -15 -5 -9 -10 4 -22 7
-27 7 -4 0 -10 6 -13 14 -7 19 28 9 45 -12z m768 -8 c0 -14 -4 -23 -10 -19 -5
3 -10 15 -10 26 0 10 5 19 10 19 6 0 10 -12 10 -26z m393 9 c9 -9 -13 -34 -24
-27 -14 8 -11 34 4 34 8 0 17 -3 20 -7z m752 -23 c3 -5 2 -10 -4 -10 -5 0 -13
5 -16 10 -3 6 -2 10 4 10 5 0 13 -4 16 -10z m-4275 -10 c0 -5 -4 -10 -10 -10
-5 0 -10 5 -10 10 0 6 5 10 10 10 6 0 10 -4 10 -10z m40 -5 c0 -8 -4 -15 -10
-15 -5 0 -7 7 -4 15 4 8 8 15 10 15 2 0 4 -7 4 -15z m225 5 c3 -5 1 -10 -4
-10 -6 0 -11 5 -11 10 0 6 2 10 4 10 3 0 8 -4 11 -10z m2122 -22 c-3 -7 -5 -2
-5 12 0 14 2 19 5 13 2 -7 2 -19 0 -25z m-2073 7 c-4 -8 -10 -15 -15 -15 -5 0
-9 7 -9 15 0 8 7 15 15 15 9 0 12 -6 9 -15z m4196 -20 c0 -8 -4 -15 -10 -15
-5 0 -10 7 -10 15 0 8 5 15 10 15 6 0 10 -7 10 -15z m953 -11 c-4 -12 -8 -13
-14 -3 -9 15 -2 32 11 24 5 -3 6 -13 3 -21z m-5203 -17 l25 -11 -30 -4 c-16
-2 -33 -7 -37 -10 -12 -13 7 -87 22 -87 8 0 16 -8 18 -18 3 -14 -1 -18 -19
-15 -15 2 -30 17 -44 43 -11 22 -26 44 -32 48 -16 10 -17 32 -2 58 11 21 42
20 99 -4z m2041 -40 c-17 -17 -24 -1 -9 22 11 18 14 19 16 5 2 -9 -1 -21 -7
-27z m2699 23 c0 -5 -2 -10 -4 -10 -3 0 -8 5 -11 10 -3 6 -1 10 4 10 6 0 11
-4 11 -10z m-4733 -32 c-3 -8 -6 -5 -6 6 -1 11 2 17 5 13 3 -3 4 -12 1 -19z
m5533 12 c0 -5 -4 -10 -10 -10 -5 0 -10 5 -10 10 0 6 5 10 10 10 6 0 10 -4 10
-10z m-3436 -48 c-9 -33 -21 -27 -16 9 2 17 8 27 13 22 5 -5 6 -18 3 -31z
m353 -19 c-3 -10 -5 -2 -5 17 0 19 2 27 5 18 2 -10 2 -26 0 -35z m463 23 c0
-7 -46 -56 -53 -56 -3 0 0 14 6 30 7 18 19 30 29 30 10 0 18 -2 18 -4z m-3356
-38 c-9 -31 -8 -30 -46 -26 -28 3 -30 5 -13 13 11 5 24 14 28 22 4 7 15 13 23
13 11 0 13 -6 8 -22z m5626 2 c0 -5 -4 -10 -9 -10 -6 0 -13 5 -16 10 -3 6 1
10 9 10 9 0 16 -4 16 -10z m-2730 -14 c0 -2 3 -12 6 -21 5 -13 2 -15 -22 -9
-43 10 -50 17 -28 25 22 9 44 11 44 5z m6636 -54 c-4 -3 -14 2 -24 12 -16 18
-16 18 6 6 13 -6 21 -14 18 -18z m-5436 -22 c10 -5 22 -20 26 -32 7 -23 7 -23
15 -2 5 16 19 23 55 28 45 6 51 4 77 -24 32 -34 62 -41 55 -12 -5 16 2 19 50
20 74 2 94 -18 96 -94 0 -30 3 -54 6 -54 3 0 20 9 38 20 58 35 62 30 75 -90 3
-27 -14 -40 -50 -40 -23 0 -45 8 -59 21 -19 18 -25 19 -46 8 -14 -8 -70 -14
-148 -16 -69 -1 -137 -3 -152 -3 -15 0 -27 -4 -27 -8 4 -24 -4 -40 -21 -45
-24 -6 -26 6 -3 29 16 15 16 17 -1 30 -12 9 -25 10 -36 4 -9 -5 -61 -10 -116
-11 -94 -2 -99 -1 -102 20 -3 21 -42 32 -42 11 0 -5 5 -10 12 -10 31 0 -12
-18 -54 -22 -60 -7 -74 6 -47 44 18 24 18 28 4 28 -9 0 -32 -11 -51 -24 -31
-21 -33 -24 -14 -29 55 -14 -2 -43 -69 -34 -23 3 -44 -1 -56 -9 -37 -27 -52
-18 -59 39 -9 82 -7 103 13 129 25 31 78 28 91 -6 l9 -21 0 22 c1 35 43 76 79
78 18 1 37 -4 43 -12 14 -16 29 -17 29 0 0 28 44 41 141 42 67 0 102 4 118 15
28 18 95 24 121 10z m-3694 -16 c-3 -9 -6 -18 -6 -20 0 -2 -7 -4 -15 -4 -13 0
-14 4 -5 20 13 24 35 27 26 4z m4663 -48 c-7 -14 -19 -26 -28 -26 -10 0 -12 3
-5 8 6 4 17 18 23 30 17 32 25 21 10 -12z m990 -38 c20 -18 35 -36 33 -41 -2
-6 0 -17 3 -25 4 -11 17 -3 53 32 34 34 48 43 50 31 2 -9 -2 -23 -9 -31 -10
-13 -10 -17 2 -24 18 -12 19 -172 0 -178 -8 -3 -9 -8 -2 -16 11 -13 -4 -138
-21 -170 -8 -16 -6 -23 11 -37 24 -20 28 -34 6 -25 -17 6 -21 -9 -5 -19 15 -9
12 -25 -5 -25 -8 0 -15 5 -15 10 0 6 -7 10 -15 10 -12 0 -13 -3 -3 -19 16 -27
-6 -55 -38 -47 -17 5 -22 3 -18 -7 4 -10 -7 -14 -41 -15 l-47 0 3 61 c4 63 -5
92 -22 81 -5 -3 -17 0 -25 7 -21 17 -29 3 -9 -17 19 -19 15 -81 -5 -94 -6 -4
-10 -13 -8 -21 2 -8 -7 -15 -19 -17 -22 -3 -34 20 -15 31 4 2 2 2 -5 1 -16 -4
-28 82 -17 115 5 14 16 26 24 26 22 0 24 40 4 70 -16 24 -16 27 2 46 14 16 27
20 51 16 41 -7 44 11 3 20 -17 3 -33 10 -36 15 -6 10 18 68 28 68 5 0 8 8 8
19 0 10 6 24 14 30 7 6 17 30 21 54 9 49 9 43 0 85 -9 43 15 43 64 0z m-3539
-9 c0 -6 -4 -7 -10 -4 -5 3 -10 11 -10 16 0 6 5 7 10 4 6 -3 10 -11 10 -16z
m3440 -69 c0 -5 -4 -10 -10 -10 -5 0 -10 5 -10 10 0 6 5 10 10 10 6 0 10 -4
10 -10z m-3440 -20 c0 -5 -4 -10 -10 -10 -5 0 -10 5 -10 10 0 6 5 10 10 10 6
0 10 -4 10 -10z m2150 -72 c0 -4 -11 -8 -25 -8 -27 0 -33 18 -13 38 10 10 15
9 25 -5 7 -9 13 -20 13 -25z m-4330 16 c0 -8 -5 -12 -10 -9 -6 4 -8 11 -5 16
9 14 15 11 15 -7z m9115 -14 c3 -5 2 -10 -4 -10 -5 0 -13 5 -16 10 -3 6 -2 10
4 10 5 0 13 -4 16 -10z m-9132 -19 c15 -15 -8 -21 -47 -10 -20 6 -34 14 -31
19 6 10 65 4 78 -9z m3115 -3 c-5 -34 -38 -37 -38 -4 0 20 5 26 21 26 15 0 20
-5 17 -22z m2138 -30 c-10 -6 -20 -7 -24 -3 -9 8 20 25 31 18 5 -3 2 -10 -7
-15z m-1321 -28 c-3 -5 -10 -10 -16 -10 -5 0 -9 5 -9 10 0 6 7 10 16 10 8 0
12 -4 9 -10z m-1075 -70 c0 -5 -5 -10 -11 -10 -5 0 -7 5 -4 10 3 6 8 10 11 10
2 0 4 -4 4 -10z m277 -74 c-20 -23 -23 -23 -39 -9 -17 15 -18 15 -18 0 0 -21
-14 -22 -30 -3 -9 12 -5 16 27 21 21 4 43 8 48 10 27 9 31 3 12 -19z m-3399 2
c-6 -18 -28 -21 -28 -4 0 9 7 16 16 16 9 0 14 -5 12 -12z m3282 -17 c3 -4 13
-10 23 -14 9 -3 17 -16 17 -28 0 -19 4 -20 40 -14 26 4 40 3 40 -4 0 -14 -54
-14 -98 -1 -31 8 -34 7 -44 -20 -5 -17 -14 -30 -18 -30 -13 0 -21 33 -11 43 5
5 7 15 5 22 -4 9 3 11 20 8 19 -4 26 -1 26 11 0 9 -7 16 -15 16 -8 0 -15 5
-15 11 0 6 -9 9 -20 6 -12 -3 -18 -1 -14 5 6 10 55 2 64 -11z m-3325 -2 c12
-19 -5 -23 -22 -6 -16 16 -16 17 -1 17 9 0 20 -5 23 -11z m3085 -30 c0 -5 -4
-9 -10 -9 -5 0 -10 7 -10 16 0 8 5 12 10 9 6 -3 10 -10 10 -16z m1624 6 c6
-15 -29 -45 -53 -45 -11 0 -11 3 2 18 10 10 17 24 17 30 0 17 27 15 34 -3z
m-1624 -46 c0 -5 -7 -9 -15 -9 -15 0 -20 12 -9 23 8 8 24 -1 24 -14z m400 -13
c0 -11 -19 -15 -25 -6 -3 5 1 10 9 10 9 0 16 -2 16 -4z m1425 -16 c-3 -5 -11
-10 -16 -10 -6 0 -7 5 -4 10 3 6 11 10 16 10 6 0 7 -4 4 -10z m-1758 -16 c-3
-3 -12 -4 -19 -1 -8 3 -5 6 6 6 11 1 17 -2 13 -5z m1710 -26 c-3 -8 -6 -5 -6
6 -1 11 2 17 5 13 3 -3 4 -12 1 -19z m-1437 -22 c0 -3 -4 -8 -10 -11 -5 -3
-10 -1 -10 4 0 6 5 11 10 11 6 0 10 -2 10 -4z m-40 -26 c0 -5 -10 -15 -22 -21
-23 -12 -23 -12 -4 10 21 23 26 26 26 11z m-295 -20 c-4 -13 -2 -20 6 -20 7 0
3 -9 -9 -21 -13 -12 -32 -19 -45 -16 -21 3 -21 4 6 15 15 7 27 19 27 30 0 17
8 32 17 32 3 0 1 -9 -2 -20z m-185 -20 c0 -5 -4 -10 -10 -10 -5 0 -10 5 -10
10 0 6 5 10 10 10 6 0 10 -4 10 -10z m1650 -30 c0 -14 -60 -50 -82 -50 -10 0
-18 5 -18 10 0 6 6 10 13 10 8 0 24 9 37 20 25 21 50 26 50 10z m253 -26 c-7
-19 -23 -7 -23 18 0 17 3 18 14 8 8 -6 12 -18 9 -26z m-1708 -1 c-2 -10 -4
-20 -4 -22 -1 -3 -6 0 -12 6 -6 6 -8 16 -5 22 11 17 25 13 21 -6z m-3093 -21
c4 -15 1 -18 -18 -14 -28 5 -31 19 -6 25 9 3 18 5 18 6 1 0 4 -7 6 -17z m3526
0 c3 -9 -2 -13 -14 -10 -9 1 -19 9 -22 16 -3 9 2 13 14 10 9 -1 19 -9 22 -16z
m1692 13 c0 -2 -17 -20 -37 -40 -36 -35 -37 -35 -45 -15 -10 26 -1 43 17 36 8
-3 19 2 25 10 11 13 40 20 40 9z m-2367 -47 c-6 -29 -17 -36 -28 -17 -4 5 1
19 11 30 21 24 24 22 17 -13z m257 -44 c0 -15 -2 -15 -24 0 -14 9 -32 13 -40
10 -19 -7 -21 7 -5 23 16 16 69 -11 69 -33z m1377 -10 c-9 -9 -28 6 -21 18 4
6 10 6 17 -1 6 -6 8 -13 4 -17z m-1349 -27 c20 -13 14 -25 -13 -23 -16 0 -25
7 -25 18 0 17 15 19 38 5z m1740 -39 c-2 -6 -10 -14 -16 -16 -7 -2 -10 2 -6
12 7 18 28 22 22 4z m-1720 -31 c4 -19 -6 -21 -27 -8 -16 10 -5 34 12 28 7 -2
13 -11 15 -20z m125 -65 c20 -26 24 -38 15 -41 -7 -2 -16 -8 -19 -14 -4 -5
-12 -6 -18 -2 -9 5 -9 11 1 22 10 13 8 19 -15 39 -32 27 -34 34 -9 34 9 -1 30
-17 45 -38z m1237 -27 c0 -23 -18 -27 -29 -6 -18 32 -14 43 9 31 11 -6 20 -17
20 -25z m78 16 c3 -10 -2 -11 -19 -6 -38 12 -48 27 -15 22 17 -2 32 -9 34 -16z
m-1168 -51 c0 -5 -4 -10 -10 -10 -5 0 -10 5 -10 10 0 6 5 10 10 10 6 0 10 -4
10 -10z m955 -50 c3 -6 -1 -7 -9 -4 -18 7 -21 14 -7 14 6 0 13 -4 16 -10z
m-395 -85 c0 -9 10 -15 26 -15 15 0 23 -4 19 -10 -4 -6 -22 -10 -40 -8 -18 1
-40 -4 -49 -11 -26 -22 -20 14 6 39 26 24 38 26 38 5z m-205 -85 c3 -5 1 -10
-4 -10 -6 0 -11 5 -11 10 0 6 2 10 4 10 3 0 8 -4 11 -10z m115 1 c0 -5 -7 -12
-16 -15 -14 -5 -15 -4 -4 9 14 17 20 19 20 6z m1995 -232 c-5 -41 -5 -41 22
-36 23 4 35 -2 70 -41 24 -26 43 -50 43 -54 0 -7 58 -94 114 -170 16 -23 17
-32 8 -52 -9 -21 -8 -25 11 -30 13 -3 39 -32 62 -68 22 -35 43 -66 48 -69 5
-3 14 -18 22 -32 28 -55 50 -93 63 -109 12 -14 11 -18 -8 -28 -12 -6 -29 -8
-38 -4 -9 4 -44 8 -77 10 -33 2 -64 4 -70 5 -5 0 -34 -4 -63 -10 -29 -6 -56
-10 -60 -9 -11 4 -102 -26 -102 -33 0 -14 -173 -53 -223 -50 -22 1 -44 -2 -50
-7 -7 -5 -36 -12 -65 -16 -64 -8 -75 6 -43 57 12 19 21 43 21 53 0 29 -26 95
-33 87 -7 -6 -8 21 -9 122 0 22 5 52 11 67 7 19 7 29 0 34 -6 3 -8 12 -5 20 3
8 2 14 -3 14 -4 0 -8 6 -8 13 -1 6 -2 31 -4 55 -1 23 -7 42 -13 42 -6 0 -1 8
11 18 12 9 26 35 31 57 10 49 52 79 210 153 62 29 75 32 89 20 12 -9 15 -9 9
0 -9 15 1 32 19 32 11 0 14 -10 10 -41z m1585 -99 c-11 -41 -32 -50 -38 -16
-3 15 37 66 46 60 2 -1 -2 -21 -8 -44z m-17 -132 c2 -7 2 -28 0 -46 -4 -26 -8
-30 -19 -21 -14 12 -19 60 -7 72 10 11 20 8 26 -5z m-6728 -78 c3 -6 -1 -13
-10 -16 -19 -8 -30 0 -20 15 8 14 22 14 30 1z m6638 -83 c-7 -11 -23 2 -23 19
0 12 2 12 14 2 8 -7 12 -16 9 -21z m-6553 -1 c0 -2 -7 -6 -15 -10 -8 -3 -15
-1 -15 4 0 6 7 10 15 10 8 0 15 -2 15 -4z m8883 -11 c4 -8 2 -17 -3 -20 -6 -4
-10 3 -10 14 0 25 6 27 13 6z m-83 -105 c0 -5 -4 -10 -10 -10 -5 0 -10 5 -10
10 0 6 5 10 10 10 6 0 10 -4 10 -10z m-10193 -36 c-3 -3 -12 -4 -19 -1 -8 3
-5 6 6 6 11 1 17 -2 13 -5z m10283 -23 c0 -11 -4 -23 -10 -26 -5 -3 -10 -15
-10 -26 0 -20 -15 -26 -25 -9 -8 12 21 80 34 80 6 0 11 -9 11 -19z m-10274
-11 c13 0 24 -4 24 -10 0 -5 -11 -10 -24 -10 -13 0 -27 -8 -30 -17 -5 -12 -9
-14 -18 -5 -7 7 -20 12 -30 12 -10 0 -18 4 -18 8 0 13 43 31 58 26 8 -2 25 -4
38 -4z m10349 -30 c3 -5 -3 -15 -13 -21 -12 -7 -17 -19 -14 -31 7 -28 -5 -21
-22 14 -19 38 -20 55 -3 61 13 5 43 -8 52 -23z m-258 -4 c-4 -9 -13 -13 -22
-10 -8 3 -12 11 -9 16 4 6 10 5 15 -3 7 -11 9 -9 9 5 0 11 3 17 6 13 4 -3 4
-13 1 -21z m-9992 -25 c-3 -12 3 -22 20 -31 22 -12 26 -30 5 -30 -15 0 -52 60
-46 76 8 21 28 7 21 -15z m1058 17 c3 -10 9 -10 26 0 30 18 53 15 49 -5 -3
-14 -14 -18 -53 -18 -28 0 -60 -6 -72 -13 -27 -15 -33 -15 -33 1 0 12 46 44
67 46 6 1 13 -5 16 -11z m9051 -3 c3 -8 2 -14 -2 -14 -20 3 -30 -3 -35 -21 -3
-13 -13 -20 -29 -20 -21 1 -20 3 16 35 46 41 42 39 50 20z m-10154 -19 c0 -8
-12 -18 -28 -24 -33 -11 -74 1 -66 21 7 20 94 22 94 3z m778 -14 c2 -7 -7 -12
-23 -12 -24 0 -26 2 -15 15 14 17 31 16 38 -3z m9452 8 c0 -5 -5 -10 -11 -10
-7 0 -9 -10 -5 -26 6 -21 4 -25 -11 -22 -17 4 -19 21 -8 56 5 14 35 16 35 2z
m-10400 -46 c0 -16 -9 -18 -30 -4 -13 9 -13 11 0 19 17 12 30 5 30 -15z
m10490 5 c0 -5 -7 -9 -15 -9 -15 0 -20 12 -9 23 8 8 24 -1 24 -14z m-10310 1
c0 -5 -4 -10 -10 -10 -5 0 -10 5 -10 10 0 6 5 10 10 10 6 0 10 -4 10 -10z
m3030 -11 c0 -5 -4 -9 -10 -9 -5 0 -10 7 -10 16 0 8 5 12 10 9 6 -3 10 -10 10
-16z m-3122 -26 c-5 -25 -28 -28 -28 -4 0 12 6 21 16 21 9 0 14 -7 12 -17z
m3345 0 c-13 -2 -35 -2 -50 0 -16 2 -5 4 22 4 28 0 40 -2 28 -4z m6757 -3 c0
-5 -4 -10 -10 -10 -5 0 -10 5 -10 10 0 6 5 10 10 10 6 0 10 -4 10 -10z m-8070
-85 c7 -9 10 -18 7 -22 -8 -7 -37 15 -37 28 0 14 16 11 30 -6z m8045 -5 c3 -5
-3 -18 -14 -29 -23 -23 -33 -15 -24 17 5 23 27 29 38 12z m55 -70 c0 -5 -5
-10 -11 -10 -5 0 -7 5 -4 10 3 6 8 10 11 10 2 0 4 -4 4 -10z m-7804 -98 c-9
-9 -37 8 -31 18 5 8 11 7 21 -1 8 -6 12 -14 10 -17z m1268 9 c3 -5 -3 -11 -14
-14 -20 -5 -26 3 -13 16 9 10 21 9 27 -2z m471 -301 c3 -5 -1 -10 -9 -10 -9 0
-16 5 -16 10 0 6 4 10 9 10 6 0 13 -4 16 -10z m-150 -80 c-3 -5 -11 -10 -16
-10 -6 0 -7 5 -4 10 3 6 11 10 16 10 6 0 7 -4 4 -10z m80 -50 c-3 -5 -15 -10
-26 -10 -11 0 -17 5 -14 10 3 6 15 10 26 10 11 0 17 -4 14 -10z m-14 -121 c5
-1 13 -2 18 -3 5 0 12 -4 15 -8 3 -5 3 -6 -1 -3 -3 3 -12 -3 -19 -13 -11 -16
-13 -15 -23 11 -6 15 -16 27 -22 27 -8 0 -7 5 2 17 13 15 14 14 17 -5 2 -12 8
-23 13 -23z m-36 -30 c11 -17 0 -20 -21 -4 -17 13 -17 14 -2 15 9 0 20 -5 23
-11z m80 -20 c11 -17 -1 -21 -15 -4 -8 9 -8 15 -2 15 6 0 14 -5 17 -11z m134
-80 c-17 -49 -28 -58 -45 -35 -19 27 -18 46 5 46 11 0 21 9 25 22 4 16 9 19
16 12 7 -7 7 -21 -1 -45z m-176 11 c-3 -11 -9 -20 -14 -20 -5 0 -8 -4 -6 -9 1
-5 -1 -9 -5 -10 -9 -1 -9 6 3 37 11 27 29 29 22 2z m347 16 c0 -3 -4 -8 -10
-11 -5 -3 -10 -1 -10 4 0 6 5 11 10 11 6 0 10 -2 10 -4z m-50 -26 c0 -5 -5
-10 -11 -10 -5 0 -7 5 -4 10 3 6 8 10 11 10 2 0 4 -4 4 -10z m-237 -45 c1 -5
-6 -11 -15 -13 -11 -2 -18 3 -18 13 0 17 30 18 33 0z m208 1 c8 4 9 3 5 -4 -8
-14 -42 -16 -50 -3 -9 14 6 22 20 10 7 -6 19 -7 25 -3z m69 1 c0 -20 -9 -25
-31 -20 -15 4 -17 8 -8 19 15 18 39 18 39 1z m60 -11 c0 -13 -71 -89 -77 -82
-8 7 10 36 22 36 7 0 18 14 25 30 13 31 30 40 30 16z m-635 -24 c12 -27 28
-23 35 8 l6 24 15 -22 c9 -12 18 -20 21 -17 3 3 13 -4 23 -15 21 -23 21 -23
-21 -11 -17 5 -37 5 -45 0 -10 -6 -22 1 -41 22 -31 33 -35 43 -15 37 6 -3 16
-14 22 -26z m100 18 c3 -5 -1 -10 -10 -10 -9 0 -13 5 -10 10 3 6 8 10 10 10 2
0 7 -4 10 -10z m45 0 c0 -5 -4 -10 -10 -10 -5 0 -10 5 -10 10 0 6 5 10 10 10
6 0 10 -4 10 -10z m-250 -4 c0 -3 -4 -8 -10 -11 -5 -3 -10 -1 -10 4 0 6 5 11
10 11 6 0 10 -2 10 -4z m470 -11 c0 -11 7 -14 25 -9 14 3 31 1 39 -5 10 -9 16
-9 21 -1 4 6 21 8 43 4 67 -12 63 -20 -14 -30 -60 -7 -80 -7 -90 3 -14 14 -35
18 -33 6 3 -19 -2 -33 -12 -33 -6 0 -8 8 -4 19 3 11 1 22 -4 25 -14 9 -2 36
15 36 8 0 14 -7 14 -15z m-103 -26 c22 -8 24 -12 13 -19 -21 -14 -123 -13
-115 1 4 6 19 7 36 4 22 -5 29 -3 29 9 0 19 1 19 37 5z m2770 -495 c-3 -3 -12
-4 -19 -1 -8 3 -5 6 6 6 11 1 17 -2 13 -5z m-452 -144 c3 -6 -4 -10 -17 -10
-18 0 -20 2 -8 10 19 12 18 12 25 0z m384 -95 c3 -17 2 -17 -13 -3 -19 20 -21
31 -3 26 6 -3 14 -13 16 -23z m-325 -31 c9 -8 16 -28 16 -43 0 -16 3 -42 6
-58 l6 -30 -48 3 c-26 2 -51 9 -56 16 -4 7 -8 39 -8 71 l0 57 34 0 c19 0 42
-7 50 -16z m296 -4 c0 -5 -4 -10 -10 -10 -5 0 -10 5 -10 10 0 6 5 10 10 10 6
0 10 -4 10 -10z m-42 -82 l-13 -23 -3 23 c-4 28 21 66 26 39 2 -9 -3 -26 -10
-39z m-48 -40 c-1 -27 -26 -67 -57 -93 -41 -33 -133 -69 -147 -55 -11 11 59
80 81 80 8 0 33 18 55 40 42 40 68 51 68 28z m-4010 -781 c29 -15 37 -48 16
-66 -13 -11 -30 -10 -92 4 -49 11 -80 13 -86 7 -11 -11 5 -80 33 -134 20 -39
52 -51 63 -23 10 26 69 55 111 54 59 -1 119 -22 123 -42 4 -21 -15 -47 -34
-47 -7 0 -24 -10 -37 -22 -14 -13 -50 -41 -80 -63 -65 -46 -71 -70 -32 -127
14 -20 25 -45 25 -55 0 -10 9 -29 19 -42 35 -46 2 -81 -78 -81 -38 0 -71 24
-84 63 -9 23 -36 22 -63 -4 -64 -60 -181 -33 -225 52 -23 47 -26 151 -4 193 8
15 15 36 15 46 0 21 69 85 101 95 81 23 81 22 73 91 -5 51 -3 69 10 89 16 24
21 25 109 25 54 0 102 -6 117 -13z m-911 -196 c8 -5 15 -24 16 -42 0 -19 6
-45 12 -59 6 -14 14 -62 18 -105 4 -44 12 -88 17 -97 11 -23 55 -23 99 -1 23
12 59 17 116 18 73 0 84 -3 108 -25 15 -14 25 -33 23 -44 -3 -18 -12 -20 -118
-22 -88 -1 -129 -7 -175 -23 -78 -28 -190 -44 -215 -31 -16 9 -18 21 -14 137
4 122 20 279 30 295 7 11 66 10 83 -1z m2310 -140 c-23 -29 -68 -63 -53 -40 5
8 9 25 9 39 0 16 8 28 25 37 34 17 45 -3 19 -36z m-1949 -381 c13 -8 13 -11
-2 -27 -14 -13 -20 -14 -30 -5 -16 16 -78 16 -78 0 0 -7 12 -22 28 -34 22 -19
25 -26 16 -40 -30 -51 -114 -73 -162 -43 -34 21 -9 40 44 32 29 -4 49 -1 60 8
14 12 12 16 -17 40 l-33 27 34 21 c19 12 40 19 47 17 6 -3 24 -1 40 4 37 11
36 11 53 0z m83 -38 c-24 -21 -43 -41 -43 -46 0 -4 -11 -21 -25 -38 -26 -30
-33 -58 -15 -58 16 0 130 122 136 146 7 27 21 34 56 27 33 -6 43 -29 25 -57
-17 -27 -29 -86 -18 -86 5 0 34 28 64 61 53 59 77 69 77 31 0 -10 -13 -26 -30
-35 -16 -10 -35 -27 -40 -37 -10 -18 -9 -19 15 -8 14 6 25 17 25 24 0 7 6 11
14 8 7 -3 16 2 19 10 4 9 27 17 61 21 47 6 61 4 91 -14 20 -11 42 -21 48 -21
15 0 38 -35 30 -44 -4 -3 -17 -6 -30 -6 -15 0 -27 -8 -33 -22 -8 -21 -9 -21
-9 7 -1 26 -7 33 -43 49 -55 23 -105 10 -142 -38 -22 -29 -24 -36 -11 -46 8
-7 35 -15 60 -18 54 -6 57 -16 9 -32 -40 -13 -109 -6 -133 13 -8 7 -36 12 -62
12 -64 0 -73 11 -54 64 19 54 19 51 -4 51 -13 0 -26 -15 -40 -46 l-22 -46 -62
7 c-107 11 -117 19 -69 54 62 46 74 58 103 104 26 40 36 47 63 47 l31 0 -42
-38z m487 -181 c-13 -26 -26 -27 -40 -2 -9 17 -6 20 18 23 35 4 36 4 22 -21z
m-86 -22 c-12 -19 18 -40 48 -34 29 7 36 -3 16 -23 -15 -15 -50 -15 -100 0
l-39 11 32 33 c18 18 36 31 41 28 4 -3 6 -10 2 -15z m-359 -79 c18 -8 18 -9
-5 -10 -26 -1 -87 -47 -76 -57 6 -6 122 9 184 24 34 8 21 26 -29 40 l-44 13
55 -5 c33 -3 59 -11 66 -20 6 -8 19 -15 28 -15 25 0 10 -18 -36 -41 -22 -11
-60 -40 -84 -65 -25 -24 -49 -44 -54 -44 -5 0 -16 -13 -25 -30 -9 -18 -23 -30
-35 -30 -11 0 -25 -10 -31 -22 -17 -32 -30 -39 -64 -32 -32 7 -55 21 -55 35 0
15 84 89 108 96 16 4 22 12 20 27 -2 11 -10 22 -18 22 -8 1 -24 2 -36 3 -11 0
-29 8 -40 16 -18 15 -18 15 0 8 16 -5 18 -3 14 15 -4 13 -1 22 5 22 6 0 18 7
26 15 14 12 83 41 101 43 3 0 14 -3 25 -8z m403 -61 c12 -18 9 -24 -25 -55
-21 -20 -64 -53 -96 -74 -41 -26 -65 -51 -79 -80 -28 -55 -73 -76 -126 -59
-20 7 -43 13 -49 15 -34 9 -4 59 56 92 13 8 40 23 59 34 19 11 51 30 71 44 20
13 43 24 53 24 9 0 21 7 26 16 5 8 17 17 28 18 11 2 20 12 22 24 4 29 43 29
60 1z m-689 -413 c9 -10 8 -16 -4 -26 -12 -10 -15 -10 -15 4 0 9 -5 16 -11 16
-5 0 -7 5 -4 10 9 14 20 13 34 -4z m186 -46 c-3 -5 -11 -10 -16 -10 -6 0 -7 5
-4 10 3 6 11 10 16 10 6 0 7 -4 4 -10z m55 1 c0 -9 -41 -23 -49 -16 -3 4 28
20 47 24 1 1 2 -3 2 -8z m571 -20 c22 14 24 12 37 -34 22 -73 12 -82 -106 -91
-70 -5 -80 3 -63 46 11 30 49 73 71 80 8 3 22 2 31 -3 8 -4 22 -3 30 2z m-396
-31 c9 -15 -4 -50 -20 -50 -8 0 -17 4 -20 10 -3 5 0 7 8 4 18 -6 32 12 17 21
-5 3 -10 10 -10 16 0 12 17 12 25 -1z m85 -26 c0 -8 -7 -14 -15 -14 -15 0 -21
21 -9 33 10 9 24 -2 24 -19z m20 -50 c0 -8 -4 -14 -10 -14 -5 0 -10 9 -10 21
0 11 5 17 10 14 6 -3 10 -13 10 -21z m-300 -84 c0 -5 -4 -10 -10 -10 -5 0 -10
5 -10 10 0 6 5 10 10 10 6 0 10 -4 10 -10z"/>
<path d="M4995 10370 c-4 -6 -3 -16 3 -22 6 -6 12 -6 17 2 4 6 3 16 -3 22 -6
6 -12 6 -17 -2z"/>
<path d="M5242 10309 c2 -7 10 -15 17 -17 8 -3 12 1 9 9 -2 7 -10 15 -17 17
-8 3 -12 -1 -9 -9z"/>
<path d="M5501 10146 c-21 -11 -21 -14 -6 -20 18 -6 45 9 45 25 0 12 -11 11
-39 -5z"/>
<path d="M5620 10122 c0 -10 -5 -23 -11 -29 -16 -16 5 -24 26 -9 12 9 15 19
11 34 -9 27 -26 29 -26 4z"/>
<path d="M4134 10049 c-3 -6 -1 -14 5 -18 13 -9 81 10 81 21 0 12 -78 9 -86
-3z"/>
<path d="M4574 9629 c0 -12 7 -24 14 -27 9 -3 13 3 10 19 -4 29 -26 36 -24 8z"/>
<path d="M5122 9600 c0 -14 2 -19 5 -12 2 6 2 18 0 25 -3 6 -5 1 -5 -13z"/>
<path d="M5975 9590 c-3 -5 -1 -10 4 -10 6 0 11 5 11 10 0 6 -2 10 -4 10 -3 0
-8 -4 -11 -10z"/>
<path d="M5380 9520 c0 -5 5 -10 10 -10 6 0 10 5 10 10 0 6 -4 10 -10 10 -5 0
-10 -4 -10 -10z"/>
<path d="M5080 9500 c-9 -6 -10 -10 -3 -10 6 0 15 5 18 10 8 12 4 12 -15 0z"/>
<path d="M5613 9463 c9 -2 23 -2 30 0 6 3 -1 5 -18 5 -16 0 -22 -2 -12 -5z"/>
<path d="M5206 9281 c-3 -5 1 -11 9 -15 15 -6 29 7 18 18 -9 9 -21 8 -27 -3z"/>
<path d="M5202 9128 c6 -18 28 -21 28 -4 0 9 -7 16 -16 16 -9 0 -14 -5 -12
-12z"/>
<path d="M4984 9106 c-8 -22 3 -33 18 -18 9 9 9 15 0 24 -9 9 -13 7 -18 -6z"/>
<path d="M6340 8930 c0 -5 5 -10 11 -10 5 0 7 5 4 10 -3 6 -8 10 -11 10 -2 0
-4 -4 -4 -10z"/>
<path d="M6490 8880 c0 -5 5 -10 11 -10 5 0 7 5 4 10 -3 6 -8 10 -11 10 -2 0
-4 -4 -4 -10z"/>
<path d="M5245 8860 c-3 -5 -3 -15 1 -21 6 -11 23 6 24 24 0 10 -18 9 -25 -3z"/>
<path d="M5680 8790 c0 -5 4 -10 9 -10 6 0 13 5 16 10 3 6 -1 10 -9 10 -9 0
-16 -4 -16 -10z"/>
<path d="M6487 8740 c3 -11 7 -20 9 -20 2 0 4 9 4 20 0 11 -4 20 -9 20 -5 0
-7 -9 -4 -20z"/>
<path d="M6572 8697 c3 -24 21 -27 26 -4 2 8 -4 17 -13 21 -13 4 -16 1 -13
-17z"/>
<path d="M6495 8689 c-5 -7 -1 -18 11 -26 24 -17 33 2 11 24 -11 12 -16 12
-22 2z"/>
<path d="M6460 8641 c0 -5 5 -13 10 -16 6 -3 10 -2 10 4 0 5 -4 13 -10 16 -5
3 -10 2 -10 -4z"/>
<path d="M5526 8584 c-8 -22 4 -40 15 -23 11 18 11 39 0 39 -5 0 -12 -7 -15
-16z"/>
<path d="M5596 8516 c10 -8 21 -12 24 -10 5 6 -21 24 -34 24 -6 0 -1 -6 10
-14z"/>
<path d="M5680 8484 c0 -8 5 -12 10 -9 6 4 8 11 5 16 -9 14 -15 11 -15 -7z"/>
<path d="M5674 8445 c-9 -22 1 -29 15 -11 8 10 9 16 1 21 -5 3 -13 -1 -16 -10z"/>
<path d="M5127 8414 c-13 -13 -7 -24 14 -24 11 0 19 5 17 12 -5 14 -22 21 -31
12z"/>
<path d="M5840 8372 c0 -11 41 -34 48 -27 4 4 -2 13 -12 21 -22 15 -36 18 -36
6z"/>
<path d="M6470 8366 c0 -9 5 -16 10 -16 6 0 10 4 10 9 0 6 -4 13 -10 16 -5 3
-10 -1 -10 -9z"/>
<path d="M5810 8335 c-10 -13 -9 -15 9 -15 11 0 21 4 21 9 0 18 -18 21 -30 6z"/>
<path d="M6420 8339 c0 -5 5 -7 10 -4 6 3 10 8 10 11 0 2 -4 4 -10 4 -5 0 -10
-5 -10 -11z"/>
<path d="M4570 8325 c0 -9 5 -15 11 -13 6 2 11 8 11 13 0 5 -5 11 -11 13 -6 2
-11 -4 -11 -13z"/>
<path d="M5875 8326 c-13 -9 -15 -15 -6 -20 6 -4 18 -1 26 8 20 19 3 29 -20
12z"/>
<path d="M6460 8330 c0 -5 7 -10 16 -10 8 0 12 5 9 10 -3 6 -10 10 -16 10 -5
0 -9 -4 -9 -10z"/>
<path d="M6457 8304 c-11 -11 3 -24 18 -18 8 4 12 10 9 15 -6 11 -18 12 -27 3z"/>
<path d="M5812 8278 c5 -32 28 -35 28 -4 0 17 -5 26 -16 26 -10 0 -14 -7 -12
-22z"/>
<path d="M5770 8248 c0 -19 2 -20 10 -8 13 19 13 30 0 30 -5 0 -10 -10 -10
-22z"/>
<path d="M5800 8216 c0 -9 7 -16 16 -16 9 0 14 5 12 12 -6 18 -28 21 -28 4z"/>
<path d="M5852 8181 c2 -14 9 -26 16 -29 17 -5 15 10 -3 34 -15 18 -15 18 -13
-5z"/>
<path d="M6133 8039 c-25 -9 -30 -19 -10 -19 15 0 43 17 37 23 -3 3 -15 1 -27
-4z"/>
<path d="M5900 7840 c-12 -7 -12 -10 3 -16 21 -8 29 -3 19 13 -5 8 -13 9 -22
3z"/>
<path d="M5930 7800 c0 -5 5 -10 10 -10 6 0 10 5 10 10 0 6 -4 10 -10 10 -5 0
-10 -4 -10 -10z"/>
<path d="M6430 7765 c0 -8 5 -15 10 -15 6 0 10 7 10 15 0 8 -4 15 -10 15 -5 0
-10 -7 -10 -15z"/>
<path d="M5705 7670 c-16 -18 -16 -18 4 -13 25 6 35 19 22 27 -4 3 -16 -3 -26
-14z"/>
<path d="M5808 7669 c-10 -5 -18 -17 -18 -25 0 -13 4 -13 29 2 17 10 28 21 25
26 -7 10 -15 10 -36 -3z"/>
<path d="M5860 7659 c0 -5 5 -7 10 -4 6 3 10 8 10 11 0 2 -4 4 -10 4 -5 0 -10
-5 -10 -11z"/>
<path d="M5680 7610 c0 -5 5 -10 10 -10 6 0 10 5 10 10 0 6 -4 10 -10 10 -5 0
-10 -4 -10 -10z"/>
<path d="M6336 7611 c-4 -5 -2 -12 3 -15 5 -4 12 -2 15 3 4 5 2 12 -3 15 -5 4
-12 2 -15 -3z"/>
<path d="M4875 7598 c-2 -7 -3 -22 -2 -33 1 -14 -4 -19 -23 -20 -15 0 -29 -8
-35 -21 -6 -12 -17 -29 -24 -38 -8 -9 -11 -19 -7 -23 8 -9 94 36 100 53 3 8
12 14 19 14 8 0 20 6 26 14 10 11 8 16 -9 21 -11 4 -19 14 -18 22 4 20 -20 30
-27 11z"/>
<path d="M5310 7601 c0 -6 5 -13 10 -16 6 -3 10 1 10 9 0 9 -4 16 -10 16 -5 0
-10 -4 -10 -9z"/>
<path d="M4740 7590 c0 -5 5 -10 10 -10 6 0 10 5 10 10 0 6 -4 10 -10 10 -5 0
-10 -4 -10 -10z"/>
<path d="M5760 7570 c0 -13 5 -20 13 -17 6 2 12 10 12 17 0 7 -6 15 -12 18 -8
2 -13 -5 -13 -18z"/>
<path d="M5910 7574 c0 -14 3 -14 15 -4 8 7 15 14 15 16 0 2 -7 4 -15 4 -8 0
-15 -7 -15 -16z"/>
<path d="M5502 7540 c-12 -19 -11 -20 8 -8 20 13 27 28 12 28 -4 0 -13 -9 -20
-20z"/>
<path d="M4530 7546 c0 -2 9 -6 20 -9 11 -3 18 -1 14 4 -5 9 -34 13 -34 5z"/>
<path d="M5993 7523 c-4 -9 -1 -19 5 -21 7 -2 12 -13 11 -25 0 -15 -2 -17 -6
-7 -8 21 -22 28 -44 23 -33 -9 -21 -31 19 -36 45 -5 61 6 44 33 -6 10 -9 26
-6 35 3 8 1 15 -5 15 -7 0 -15 -8 -18 -17z"/>
<path d="M6035 7530 c3 -5 8 -10 11 -10 2 0 4 5 4 10 0 6 -5 10 -11 10 -5 0
-7 -4 -4 -10z"/>
<path d="M4940 7515 c-7 -8 -19 -15 -26 -15 -19 0 -18 -19 2 -27 15 -6 54 27
54 47 0 15 -16 12 -30 -5z"/>
<path d="M5722 7518 c-7 -7 -12 -16 -12 -21 0 -5 7 -1 16 8 9 9 14 18 12 20
-2 3 -10 -1 -16 -7z"/>
<path d="M5442 7475 l-19 -24 -11 22 c-10 21 -11 21 -11 -6 -1 -20 6 -31 24
-39 14 -6 25 -19 25 -30 0 -10 4 -18 9 -18 5 0 9 12 9 26 0 15 5 30 12 34 14
9 6 60 -9 60 -5 0 -18 -11 -29 -25z"/>
<path d="M6252 7470 c0 -14 2 -19 5 -12 2 6 2 18 0 25 -3 6 -5 1 -5 -13z"/>
<path d="M5375 7460 c3 -5 8 -10 11 -10 2 0 4 5 4 10 0 6 -5 10 -11 10 -5 0
-7 -4 -4 -10z"/>
<path d="M5010 7439 c0 -5 5 -7 10 -4 6 3 10 8 10 11 0 2 -4 4 -10 4 -5 0 -10
-5 -10 -11z"/>
<path d="M5500 7416 c0 -40 12 -52 30 -31 10 12 10 21 2 40 -16 36 -32 31 -32
-9z"/>
<path d="M4901 7424 c0 -11 3 -14 6 -6 3 7 2 16 -1 19 -3 4 -6 -2 -5 -13z"/>
<path d="M5375 7419 c-4 -12 -2 -26 4 -32 8 -8 11 -2 11 21 0 37 -6 41 -15 11z"/>
<path d="M5570 7416 c0 -9 5 -16 10 -16 6 0 10 4 10 9 0 6 -4 13 -10 16 -5 3
-10 -1 -10 -9z"/>
<path d="M4480 7410 c0 -5 7 -10 15 -10 8 0 15 5 15 10 0 6 -7 10 -15 10 -8 0
-15 -4 -15 -10z"/>
<path d="M4700 7409 c0 -5 5 -7 10 -4 6 3 10 8 10 11 0 2 -4 4 -10 4 -5 0 -10
-5 -10 -11z"/>
<path d="M5920 7403 c0 -5 4 -15 10 -23 11 -18 25 -7 17 15 -6 15 -27 21 -27
8z"/>
<path d="M4848 7362 c-10 -2 -18 -10 -18 -18 0 -19 13 -18 40 4 23 18 16 22
-22 14z"/>
<path d="M4661 7333 c0 -4 4 -17 9 -28 8 -19 9 -19 9 2 1 12 -3 25 -9 28 -5 3
-10 3 -9 -2z"/>
<path d="M4710 7330 c-8 -5 -11 -12 -7 -16 4 -4 13 -2 19 4 15 15 7 24 -12 12z"/>
<path d="M5170 7304 c0 -8 5 -12 10 -9 6 4 8 11 5 16 -9 14 -15 11 -15 -7z"/>
<path d="M4795 7270 c-3 -6 -17 -7 -31 -4 -17 4 -24 2 -24 -9 0 -8 13 -17 31
-21 37 -7 45 -3 52 24 5 21 -16 29 -28 10z"/>
<path d="M5940 7250 c0 -15 26 -41 34 -33 11 11 6 22 -14 33 -14 8 -20 8 -20
0z"/>
<path d="M4679 7230 c-20 -16 -21 -19 -6 -20 25 0 21 -30 -4 -30 -15 0 -19 -4
-15 -16 3 -9 6 -23 6 -31 0 -11 7 -14 24 -9 15 4 26 1 29 -7 3 -9 8 -9 17 -1
9 9 4 15 -19 25 -32 14 -37 35 -8 33 15 -2 15 1 2 19 -13 18 -12 22 2 32 10 8
12 14 6 18 -6 4 -22 -2 -34 -13z"/>
<path d="M5220 7210 c0 -5 9 -10 20 -10 11 0 20 5 20 10 0 6 -9 10 -20 10 -11
0 -20 -4 -20 -10z"/>
<path d="M4800 7180 c0 -5 5 -10 10 -10 6 0 10 5 10 10 0 6 -4 10 -10 10 -5 0
-10 -4 -10 -10z"/>
<path d="M5642 7148 c5 -15 28 -23 28 -10 0 5 -7 13 -16 16 -10 4 -14 1 -12
-6z"/>
<path d="M5620 7099 c0 -5 5 -7 10 -4 6 3 10 8 10 11 0 2 -4 4 -10 4 -5 0 -10
-5 -10 -11z"/>
<path d="M5310 7064 c0 -8 5 -12 10 -9 6 3 10 10 10 16 0 5 -4 9 -10 9 -5 0
-10 -7 -10 -16z"/>
<path d="M4557 7053 c-13 -13 -7 -32 8 -27 8 4 15 12 15 20 0 15 -12 19 -23 7z"/>
<path d="M4615 7039 c-16 -6 -14 -8 13 -8 33 -1 41 4 20 12 -7 2 -22 1 -33 -4z"/>
<path d="M5110 6946 c0 -9 5 -16 10 -16 6 0 10 4 10 9 0 6 -4 13 -10 16 -5 3
-10 -1 -10 -9z"/>
<path d="M5197 6943 c-4 -3 -7 -11 -7 -17 0 -6 5 -5 12 2 6 6 9 14 7 17 -3 3
-9 2 -12 -2z"/>
<path d="M4756 6854 c-4 -10 -1 -14 6 -12 15 5 23 28 10 28 -5 0 -13 -7 -16
-16z"/>
<path d="M5075 6860 c-3 -5 -2 -10 4 -10 5 0 16 -3 25 -6 11 -4 16 -1 16 10 0
18 -35 22 -45 6z"/>
<path d="M3844 9405 c21 -16 32 -13 21 4 -3 6 -14 11 -23 11 -15 -1 -15 -2 2
-15z"/>
<path d="M3945 9340 c3 -5 11 -10 16 -10 6 0 7 5 4 10 -3 6 -11 10 -16 10 -6
0 -7 -4 -4 -10z"/>
<path d="M3782 8900 c-12 -12 -22 -23 -22 -25 0 -9 36 9 53 27 25 26 -3 24
-31 -2z"/>
<path d="M3798 8853 c7 -3 16 -2 19 1 4 3 -2 6 -13 5 -11 0 -14 -3 -6 -6z"/>
<path d="M3530 8500 c0 -5 5 -10 10 -10 6 0 10 5 10 10 0 6 -4 10 -10 10 -5 0
-10 -4 -10 -10z"/>
<path d="M3820 8466 c0 -2 7 -6 15 -10 8 -3 15 -1 15 4 0 6 -7 10 -15 10 -8 0
-15 -2 -15 -4z"/>
<path d="M4130 8460 c0 -5 5 -10 10 -10 6 0 10 5 10 10 0 6 -4 10 -10 10 -5 0
-10 -4 -10 -10z"/>
<path d="M4017 8443 c-4 -3 -7 -11 -7 -17 0 -6 5 -5 12 2 6 6 9 14 7 17 -3 3
-9 2 -12 -2z"/>
<path d="M3585 8390 c10 -11 21 -17 24 -14 3 4 0 9 -7 11 -6 3 -10 9 -6 14 3
5 -3 9 -12 9 -16 0 -16 -2 1 -20z"/>
<path d="M3770 8375 c0 -8 2 -15 4 -15 2 0 6 7 10 15 3 8 1 15 -4 15 -6 0 -10
-7 -10 -15z"/>
<path d="M3651 8274 c0 -11 3 -14 6 -6 3 7 2 16 -1 19 -3 4 -6 -2 -5 -13z"/>
<path d="M3560 8179 c0 -5 5 -7 10 -4 6 3 10 8 10 11 0 2 -4 4 -10 4 -5 0 -10
-5 -10 -11z"/>
<path d="M3530 8023 c0 -23 15 -39 24 -25 3 5 -1 18 -9 28 -14 18 -14 18 -15
-3z"/>
<path d="M3795 7790 c3 -5 8 -10 11 -10 2 0 4 5 4 10 0 6 -5 10 -11 10 -5 0
-7 -4 -4 -10z"/>
<path d="M3665 7771 c-3 -5 -1 -12 5 -16 5 -3 10 1 10 9 0 18 -6 21 -15 7z"/>
<path d="M3913 7684 c-3 -8 -1 -20 6 -27 10 -10 13 -5 10 19 0 4 5 11 13 15
10 7 9 9 -5 9 -10 0 -20 -7 -24 -16z"/>
<path d="M7100 7869 c0 -5 5 -7 10 -4 6 3 10 8 10 11 0 2 -4 4 -10 4 -5 0 -10
-5 -10 -11z"/>
<path d="M7105 7810 c3 -5 11 -10 16 -10 6 0 7 5 4 10 -3 6 -11 10 -16 10 -6
0 -7 -4 -4 -10z"/>
<path d="M6970 7660 c0 -5 5 -10 11 -10 5 0 7 5 4 10 -3 6 -8 10 -11 10 -2 0
-4 -4 -4 -10z"/>
<path d="M7027 7656 c-3 -8 -1 -17 6 -19 8 -3 5 -10 -8 -21 -20 -15 -19 -15 7
-16 29 0 45 14 28 25 -5 3 -10 15 -10 26 0 22 -15 26 -23 5z"/>
<path d="M7060 7583 c-14 -7 -19 -13 -12 -13 6 0 12 -6 12 -14 0 -7 8 -16 19
-19 15 -4 18 1 16 24 -3 37 -5 38 -35 22z"/>
<path d="M6670 5884 l-25 -15 25 7 c28 7 35 12 29 18 -2 2 -15 -2 -29 -10z"/>
<path d="M2698 2773 c-72 -75 -62 -217 13 -198 31 8 59 69 58 126 -2 96 -26
120 -71 72z"/>
<path d="M2635 2140 c-3 -5 1 -10 10 -10 9 0 13 5 10 10 -3 6 -8 10 -10 10 -2
0 -7 -4 -10 -10z"/>
<path d="M2400 1820 c0 -5 5 -10 11 -10 5 0 7 5 4 10 -3 6 -8 10 -11 10 -2 0
-4 -4 -4 -10z"/>
<path d="M2840 1890 c0 -5 5 -10 10 -10 6 0 10 5 10 10 0 6 -4 10 -10 10 -5 0
-10 -4 -10 -10z"/>
<path d="M1308 10813 c-19 -5 -25 -47 -9 -57 9 -6 41 36 41 54 0 10 -3 11 -32
3z"/>
<path d="M2640 10260 c0 -5 5 -10 10 -10 6 0 10 5 10 10 0 6 -4 10 -10 10 -5
0 -10 -4 -10 -10z"/>
<path d="M2410 10139 c0 -5 5 -7 10 -4 6 3 10 8 10 11 0 2 -4 4 -10 4 -5 0
-10 -5 -10 -11z"/>
<path d="M1175 8130 c-10 -11 -27 -19 -36 -18 -10 2 -19 -1 -21 -7 -5 -16 77
-10 103 8 25 18 24 21 -7 31 -14 4 -27 0 -39 -14z"/>
<path d="M1040 8124 c0 -8 -7 -22 -15 -30 -19 -19 -19 -44 -1 -44 18 0 69 67
61 80 -10 16 -45 12 -45 -6z"/>
<path d="M1155 8050 c3 -5 13 -10 21 -10 8 0 14 5 14 10 0 6 -9 10 -21 10 -11
0 -17 -4 -14 -10z"/>
<path d="M1089 8031 c-5 -33 -2 -36 33 -36 40 0 43 2 30 22 -10 16 -62 28 -63
14z"/>
<path d="M815 8000 c-3 -5 1 -10 9 -10 9 0 16 5 16 10 0 6 -4 10 -9 10 -6 0
-13 -4 -16 -10z"/>
<path d="M1010 7985 c0 -3 9 -15 20 -27 l20 -22 0 21 c0 11 -7 24 -16 27 -19
7 -24 8 -24 1z"/>
<path d="M870 7930 c-20 -12 -10 -19 14 -10 11 3 15 9 10 13 -6 3 -16 2 -24
-3z"/>
<path d="M1120 7900 c0 -5 5 -10 11 -10 5 0 7 5 4 10 -3 6 -8 10 -11 10 -2 0
-4 -4 -4 -10z"/>
<path d="M1220 7900 c0 -5 5 -10 11 -10 5 0 7 5 4 10 -3 6 -8 10 -11 10 -2 0
-4 -4 -4 -10z"/>
<path d="M1064 7878 c-4 -6 -2 -14 4 -16 7 -2 9 -9 5 -15 -3 -7 3 -3 15 7 12
11 22 23 22 28 0 12 -38 10 -46 -4z"/>
<path d="M1095 7836 c-11 -8 -14 -15 -8 -19 6 -4 16 0 23 8 17 21 8 28 -15 11z"/>
<path d="M677 7813 c-4 -3 -7 -11 -7 -17 0 -6 5 -5 12 2 6 6 9 14 7 17 -3 3
-9 2 -12 -2z"/>
<path d="M790 7720 c0 -5 5 -10 10 -10 6 0 10 5 10 10 0 6 -4 10 -10 10 -5 0
-10 -4 -10 -10z"/>
<path d="M737 7674 c-9 -10 12 -44 27 -44 14 0 28 35 18 44 -7 8 -37 7 -45 0z"/>
<path d="M437 7614 c-3 -3 -3 -12 0 -19 6 -17 33 -8 33 11 0 14 -21 19 -33 8z"/>
<path d="M600 7571 c0 -12 5 -21 10 -21 6 0 10 6 10 14 0 8 -4 18 -10 21 -5 3
-10 -3 -10 -14z"/>
<path d="M690 7560 c0 -11 5 -20 10 -20 6 0 10 9 10 20 0 11 -4 20 -10 20 -5
0 -10 -9 -10 -20z"/>
<path d="M757 7543 c-12 -11 -8 -23 8 -23 8 0 15 7 15 15 0 16 -12 20 -23 8z"/>
<path d="M665 7489 c-11 -17 1 -21 15 -4 8 9 8 15 2 15 -6 0 -14 -5 -17 -11z"/>
<path d="M535 7480 c3 -5 11 -10 16 -10 6 0 7 5 4 10 -3 6 -11 10 -16 10 -6 0
-7 -4 -4 -10z"/>
<path d="M862 7434 c-13 -14 -9 -34 7 -34 11 0 21 39 13 44 -4 2 -13 -2 -20
-10z"/>
<path d="M790 7425 c-13 -16 -3 -20 24 -9 9 3 13 10 10 15 -8 13 -20 11 -34
-6z"/>
<path d="M610 7370 c0 -5 5 -10 11 -10 5 0 7 5 4 10 -3 6 -8 10 -11 10 -2 0
-4 -4 -4 -10z"/>
<path d="M710 7370 c0 -5 9 -10 21 -10 11 0 17 5 14 10 -3 6 -13 10 -21 10 -8
0 -14 -4 -14 -10z"/>
<path d="M876 7351 c-7 -11 3 -41 14 -41 13 0 32 29 25 40 -8 12 -32 13 -39 1z"/>
<path d="M716 7013 c-11 -11 -6 -23 9 -23 8 0 15 4 15 9 0 13 -16 22 -24 14z"/>
<path d="M775 7000 c-3 -5 -1 -10 4 -10 6 0 11 5 11 10 0 6 -2 10 -4 10 -3 0
-8 -4 -11 -10z"/>
<path d="M880 6936 c0 -2 8 -10 18 -17 15 -13 16 -12 3 4 -13 16 -21 21 -21
13z"/>
<path d="M1630 6230 c-12 -8 -11 -10 8 -10 12 0 22 5 22 10 0 13 -11 13 -30 0z"/>
<path d="M2230 6210 c0 -5 7 -10 15 -10 8 0 15 5 15 10 0 6 -7 10 -15 10 -8 0
-15 -4 -15 -10z"/>
<path d="M1205 6180 c-3 -5 1 -10 9 -10 9 0 16 5 16 10 0 6 -4 10 -9 10 -6 0
-13 -4 -16 -10z"/>
<path d="M1540 6181 c0 -11 39 -25 47 -18 3 3 2 10 -2 16 -8 13 -45 15 -45 2z"/>
<path d="M1488 6172 c-16 -2 -28 -8 -28 -14 0 -6 11 -7 27 -3 47 11 47 23 1
17z"/>
<path d="M1390 6160 c0 -5 4 -10 9 -10 6 0 13 5 16 10 3 6 -1 10 -9 10 -9 0
-16 -4 -16 -10z"/>
<path d="M3048 6151 c-43 -18 -49 -31 -15 -31 21 0 66 35 56 43 -2 2 -21 -3
-41 -12z"/>
<path d="M2088 6153 c7 -3 16 -2 19 1 4 3 -2 6 -13 5 -11 0 -14 -3 -6 -6z"/>
<path d="M2270 6153 c1 -5 11 -21 24 -37 l24 -29 12 23 c11 20 10 22 -5 16
-12 -4 -18 0 -22 14 -5 18 -33 29 -33 13z"/>
<path d="M2610 6149 c0 -5 5 -7 10 -4 6 3 10 8 10 11 0 2 -4 4 -10 4 -5 0 -10
-5 -10 -11z"/>
<path d="M1500 6135 c-7 -8 -24 -15 -38 -15 -18 0 -23 -3 -15 -11 12 -12 63
-2 63 13 0 5 10 6 22 2 20 -6 21 -5 9 10 -17 20 -25 20 -41 1z"/>
<path d="M1590 6126 c0 -10 8 -16 22 -16 12 0 19 1 17 3 -2 1 -12 9 -21 16
-15 12 -18 11 -18 -3z"/>
<path d="M2777 6125 c6 -17 25 -15 31 3 2 7 -5 12 -17 12 -14 0 -19 -5 -14
-15z"/>
<path d="M770 6120 c0 -5 7 -10 16 -10 8 0 12 5 9 10 -3 6 -10 10 -16 10 -5 0
-9 -4 -9 -10z"/>
<path d="M1178 6123 c7 -3 16 -2 19 1 4 3 -2 6 -13 5 -11 0 -14 -3 -6 -6z"/>
<path d="M1980 6121 c0 -6 5 -13 10 -16 6 -3 10 1 10 9 0 9 -4 16 -10 16 -5 0
-10 -4 -10 -9z"/>
<path d="M2226 6121 c-3 -5 3 -11 13 -14 12 -3 22 1 25 9 6 16 -29 20 -38 5z"/>
<path d="M2437 6110 c3 -11 11 -19 17 -17 17 6 13 31 -6 35 -12 2 -15 -2 -11
-18z"/>
<path d="M727 6109 c7 -7 15 -10 18 -7 3 3 -2 9 -12 12 -14 6 -15 5 -6 -5z"/>
<path d="M2580 6110 c0 -5 4 -10 9 -10 6 0 13 5 16 10 3 6 -1 10 -9 10 -9 0
-16 -4 -16 -10z"/>
<path d="M2830 6110 c0 -5 9 -10 21 -10 11 0 17 5 14 10 -3 6 -13 10 -21 10
-8 0 -14 -4 -14 -10z"/>
<path d="M970 6094 c0 -9 5 -14 12 -12 18 6 21 28 4 28 -9 0 -16 -7 -16 -16z"/>
<path d="M2980 6100 c0 -5 4 -10 9 -10 6 0 13 5 16 10 3 6 -1 10 -9 10 -9 0
-16 -4 -16 -10z"/>
<path d="M100 6090 c0 -5 7 -10 16 -10 8 0 12 5 9 10 -3 6 -10 10 -16 10 -5 0
-9 -4 -9 -10z"/>
<path d="M915 6090 c-7 -12 2 -30 16 -30 5 0 9 9 9 20 0 21 -15 27 -25 10z"/>
<path d="M1896 6076 c-11 -13 -26 -22 -33 -19 -9 4 -11 0 -7 -11 3 -9 9 -14
13 -13 49 25 82 36 95 31 19 -7 21 7 4 24 -19 19 -51 13 -72 -12z"/>
<path d="M2515 6090 c3 -5 8 -10 11 -10 2 0 4 5 4 10 0 6 -5 10 -11 10 -5 0
-7 -4 -4 -10z"/>
<path d="M2680 6090 c0 -5 5 -10 10 -10 18 0 10 -22 -10 -27 -11 -3 -20 -10
-20 -15 0 -6 11 -7 28 -3 15 5 37 8 49 9 28 1 43 16 16 16 -11 0 -28 9 -38 20
-20 22 -35 26 -35 10z"/>
<path d="M821 6069 c-19 -7 -22 -12 -13 -21 9 -9 17 -7 34 10 24 23 18 27 -21
11z"/>
<path d="M2576 6071 c-10 -16 21 -20 41 -6 17 13 16 14 -9 15 -15 0 -29 -4
-32 -9z"/>
<path d="M720 6053 c-24 -12 -24 -13 18 -13 23 0 42 4 42 9 0 15 -34 18 -60 4z"/>
<path d="M1160 6060 c0 -5 5 -10 10 -10 6 0 10 5 10 10 0 6 -4 10 -10 10 -5 0
-10 -4 -10 -10z"/>
<path d="M1230 6060 c0 -5 6 -10 14 -10 8 0 18 5 21 10 3 6 -3 10 -14 10 -12
0 -21 -4 -21 -10z"/>
<path d="M2191 6043 c-16 -18 -19 -24 -8 -20 9 3 19 2 22 -3 4 -6 13 -10 22
-10 13 0 13 3 3 15 -7 8 -10 22 -6 30 9 23 -8 18 -33 -12z"/>
<path d="M400 6050 c0 -5 5 -10 10 -10 6 0 10 5 10 10 0 6 -4 10 -10 10 -5 0
-10 -4 -10 -10z"/>
<path d="M1420 6050 c0 -5 5 -10 11 -10 5 0 7 5 4 10 -3 6 -8 10 -11 10 -2 0
-4 -4 -4 -10z"/>
<path d="M630 6043 c0 -6 -9 -9 -21 -6 -16 4 -20 2 -17 -8 3 -8 16 -13 28 -11
31 3 36 10 22 24 -8 8 -12 9 -12 1z"/>
<path d="M977 6043 c-12 -11 -8 -23 7 -23 7 0 19 7 26 15 10 12 9 15 -7 15
-11 0 -23 -3 -26 -7z"/>
<path d="M1286 6035 c-10 -8 -24 -16 -30 -18 -6 -2 -8 -8 -4 -12 4 -4 14 -2
22 4 8 7 25 11 38 9 15 -2 24 3 26 15 4 21 -25 23 -52 2z"/>
<path d="M1975 6030 c-3 -5 1 -10 9 -10 9 0 16 5 16 10 0 6 -4 10 -9 10 -6 0
-13 -4 -16 -10z"/>
<path d="M2270 6010 c20 -13 50 -13 50 0 0 6 -15 10 -32 10 -25 0 -29 -3 -18
-10z"/>
<path d="M1200 6001 c0 -5 5 -13 10 -16 6 -3 10 -2 10 4 0 5 -4 13 -10 16 -5
3 -10 2 -10 -4z"/>
<path d="M708 5992 c-18 -4 -32 -29 -19 -36 11 -7 45 19 40 30 -2 5 -11 8 -21
6z"/>
<path d="M1390 5985 c0 -9 9 -15 21 -15 18 0 19 2 9 15 -7 8 -16 15 -21 15 -5
0 -9 -7 -9 -15z"/>
<path d="M2645 5990 c-3 -5 -1 -10 4 -10 6 0 11 5 11 10 0 6 -2 10 -4 10 -3 0
-8 -4 -11 -10z"/>
<path d="M614 5975 c-4 -8 -15 -15 -25 -15 -10 0 -19 -4 -19 -9 0 -17 18 -21
32 -8 7 8 27 17 43 21 27 8 28 9 10 16 -29 12 -35 12 -41 -5z"/>
<path d="M993 5975 c-3 -9 -3 -19 1 -22 8 -9 37 18 30 28 -8 14 -24 11 -31 -6z"/>
<path d="M1116 5981 c-14 -5 -16 -10 -7 -15 15 -9 41 -1 41 14 0 11 -7 12 -34
1z"/>
<path d="M1557 5973 c-12 -11 -8 -23 8 -23 8 0 15 7 15 15 0 16 -12 20 -23 8z"/>
<path d="M2132 5968 c3 -7 13 -15 24 -17 16 -3 17 -1 5 13 -16 19 -34 21 -29
4z"/>
<path d="M2245 5970 c-4 -6 7 -10 27 -9 27 0 30 2 13 9 -27 12 -33 12 -40 0z"/>
<path d="M2796 5964 c-8 -21 -8 -24 3 -24 5 0 11 9 14 20 6 24 -8 27 -17 4z"/>
<path d="M1237 5955 c-18 -13 -18 -14 2 -25 12 -6 21 -17 21 -25 0 -7 5 -15
12 -17 18 -6 98 14 98 25 0 5 -9 7 -20 4 -22 -6 -86 9 -94 21 -2 4 10 7 26 7
17 0 33 6 35 13 6 17 -57 15 -80 -3z"/>
<path d="M2477 5963 c-13 -12 -7 -33 8 -33 8 0 15 9 15 20 0 20 -11 26 -23 13z"/>
<path d="M1587 5946 c-4 -10 -1 -13 8 -9 8 3 12 9 9 14 -7 12 -11 11 -17 -5z"/>
<path d="M1460 5940 c0 -5 4 -10 9 -10 6 0 13 5 16 10 3 6 -1 10 -9 10 -9 0
-16 -4 -16 -10z"/>
<path d="M2568 5944 c-7 -7 24 -64 35 -64 4 0 5 11 1 25 -5 20 -3 24 10 19 23
-9 52 4 39 17 -6 6 -19 6 -35 0 -16 -6 -29 -6 -35 0 -5 5 -12 7 -15 3z"/>
<path d="M2850 5938 c0 -10 6 -18 12 -18 7 0 2 -7 -10 -16 -12 -8 -20 -20 -16
-25 4 -6 10 -6 19 1 7 6 20 8 29 4 23 -9 20 6 -9 41 -19 23 -24 26 -25 13z"/>
<path d="M1002 5923 c5 -24 35 -40 49 -26 8 8 2 15 -21 26 -29 15 -31 15 -28
0z"/>
<path d="M2215 5930 c-3 -5 1 -10 10 -10 9 0 13 5 10 10 -3 6 -8 10 -10 10 -2
0 -7 -4 -10 -10z"/>
<path d="M2330 5930 c-12 -8 -11 -10 8 -10 12 0 22 -4 22 -9 0 -5 10 -7 21 -4
21 6 21 6 -2 19 -29 16 -30 16 -49 4z"/>
<path d="M2418 5923 c7 -3 16 -2 19 1 4 3 -2 6 -13 5 -11 0 -14 -3 -6 -6z"/>
<path d="M2740 5914 c0 -23 19 -25 39 -5 20 20 19 20 -10 19 -17 -1 -29 -7
-29 -14z"/>
<path d="M2280 5910 c0 -5 5 -10 10 -10 6 0 10 5 10 10 0 6 -4 10 -10 10 -5 0
-10 -4 -10 -10z"/>
<path d="M2520 5910 c0 -5 5 -10 11 -10 5 0 7 5 4 10 -3 6 -8 10 -11 10 -2 0
-4 -4 -4 -10z"/>
<path d="M2995 5910 c-3 -5 -1 -10 4 -10 6 0 11 5 11 10 0 6 -2 10 -4 10 -3 0
-8 -4 -11 -10z"/>
<path d="M195 5900 c-3 -5 1 -10 9 -10 9 0 16 5 16 10 0 6 -4 10 -9 10 -6 0
-13 -4 -16 -10z"/>
<path d="M2470 5900 c0 -5 7 -10 15 -10 8 0 15 5 15 10 0 6 -7 10 -15 10 -8 0
-15 -4 -15 -10z"/>
<path d="M1150 5885 c0 -9 5 -15 11 -13 6 2 11 8 11 13 0 5 -5 11 -11 13 -6 2
-11 -4 -11 -13z"/>
<path d="M3170 5890 c0 -5 7 -10 15 -10 8 0 15 5 15 10 0 6 -7 10 -15 10 -8 0
-15 -4 -15 -10z"/>
<path d="M3280 5889 c0 -5 5 -7 10 -4 6 3 10 8 10 11 0 2 -4 4 -10 4 -5 0 -10
-5 -10 -11z"/>
<path d="M2079 5876 c6 -7 9 -21 5 -30 -5 -12 -2 -15 10 -10 9 3 16 9 16 13
-1 10 -27 41 -35 41 -4 0 -2 -6 4 -14z"/>
<path d="M2301 5876 c-8 -9 -11 -19 -7 -23 9 -9 29 13 24 27 -2 8 -8 7 -17 -4z"/>
<path d="M2360 5874 c0 -10 6 -14 14 -11 7 3 23 -1 35 -9 19 -13 21 -13 21 0
0 17 -5 21 -42 30 -22 5 -28 3 -28 -10z"/>
<path d="M3066 5874 c-11 -8 -16 -14 -10 -14 13 0 39 18 34 24 -3 2 -14 -2
-24 -10z"/>
<path d="M137 5873 c-12 -11 -8 -23 8 -23 8 0 15 7 15 15 0 16 -12 20 -23 8z"/>
<path d="M2190 5870 c0 -5 5 -10 10 -10 6 0 10 5 10 10 0 6 -4 10 -10 10 -5 0
-10 -4 -10 -10z"/>
<path d="M2560 5872 c0 -5 7 -16 16 -23 14 -12 16 -11 13 5 -4 20 -29 35 -29
18z"/>
<path d="M57 5859 c-19 -11 -23 -34 -7 -44 5 -3 19 3 30 13 16 15 18 21 8 30
-9 7 -19 7 -31 1z"/>
<path d="M2480 5860 c0 -5 5 -10 10 -10 6 0 10 5 10 10 0 6 -4 10 -10 10 -5 0
-10 -4 -10 -10z"/>
<path d="M2730 5860 c0 -5 4 -10 9 -10 6 0 13 5 16 10 3 6 -1 10 -9 10 -9 0
-16 -4 -16 -10z"/>
<path d="M2920 5856 c0 -8 7 -16 15 -20 17 -6 65 13 65 26 0 11 -18 10 -25 -2
-4 -7 -12 -7 -25 0 -25 13 -30 13 -30 -4z"/>
<path d="M1885 5850 c-3 -5 1 -10 9 -10 9 0 16 5 16 10 0 6 -4 10 -9 10 -6 0
-13 -4 -16 -10z"/>
<path d="M1955 5849 c-4 -6 -5 -13 -2 -16 7 -7 27 6 27 18 0 12 -17 12 -25 -2z"/>
<path d="M2225 5841 c3 -11 -1 -25 -10 -34 -13 -14 -13 -16 7 -19 44 -6 78 3
78 23 0 24 -16 33 -24 13 -3 -8 -11 -12 -17 -9 -6 4 -8 13 -5 20 2 7 -2 16
-10 19 -24 9 -26 8 -19 -13z"/>
<path d="M3175 5851 c-45 -10 -19 -18 60 -20 38 -1 74 -6 80 -12 18 -18 -12
-26 -68 -18 -28 4 -56 3 -61 -2 -19 -17 -60 -9 -87 17 -17 16 -34 24 -43 21
-25 -10 -18 -27 10 -27 21 0 25 -4 21 -20 -3 -10 1 -24 9 -31 8 -6 14 -17 14
-24 0 -14 22 -25 51 -25 16 0 18 -5 13 -25 -6 -23 -4 -25 32 -26 22 -1 53 -4
69 -8 17 -3 55 0 85 7 84 20 89 23 61 33 -16 7 -30 5 -45 -4 -25 -15 -84 -15
-112 1 -17 10 -16 11 11 12 17 0 40 3 52 6 19 5 21 10 12 25 -7 14 -6 19 4 19
23 0 57 44 51 66 -8 31 -141 52 -219 35z m-1 -87 c25 -10 19 -21 -11 -22 -33
0 -45 6 -38 19 7 10 26 12 49 3z m90 -13 c3 -5 -4 -11 -17 -15 -35 -9 -40 -7
-27 9 14 17 36 20 44 6z"/>
<path d="M2131 5847 c2 -1 11 -8 20 -15 14 -10 18 -10 23 3 4 11 -1 15 -21 15
-14 0 -24 -1 -22 -3z"/>
<path d="M2860 5840 c0 -5 5 -10 10 -10 6 0 10 5 10 10 0 6 -4 10 -10 10 -5 0
-10 -4 -10 -10z"/>
<path d="M2595 5829 c-4 -6 -4 -13 -1 -16 8 -8 36 5 36 17 0 13 -27 13 -35 -1z"/>
<path d="M2786 5825 c-17 -13 -17 -17 -5 -32 17 -22 43 -43 47 -38 2 2 -2 13
-8 25 -9 16 -9 25 -1 33 27 27 0 37 -33 12z"/>
<path d="M2336 5815 c4 -9 11 -14 16 -13 15 5 11 23 -6 26 -11 2 -14 -2 -10
-13z"/>
<path d="M2890 5803 c0 -3 7 -15 16 -25 13 -14 14 -21 5 -32 -7 -8 -8 -17 -3
-20 5 -3 15 5 22 18 7 13 23 29 36 35 39 17 28 31 -26 31 -27 0 -50 -3 -50 -7z"/>
<path d="M2105 5790 c-9 -14 -6 -17 20 -22 13 -2 20 3 20 12 0 18 -30 26 -40
10z"/>
<path d="M2605 5791 c-3 -5 -1 -12 4 -15 5 -3 11 1 15 9 6 16 -9 21 -19 6z"/>
<path d="M2740 5770 c0 -5 5 -10 10 -10 6 0 10 5 10 10 0 6 -4 10 -10 10 -5 0
-10 -4 -10 -10z"/>
<path d="M3047 5773 c-12 -11 -8 -23 8 -23 8 0 15 7 15 15 0 16 -12 20 -23 8z"/>
<path d="M3840 5770 c0 -5 7 -10 15 -10 8 0 15 5 15 10 0 6 -7 10 -15 10 -8 0
-15 -4 -15 -10z"/>
<path d="M2587 5763 c-4 -3 -7 -16 -7 -28 0 -14 -10 -26 -27 -34 -20 -9 -24
-14 -13 -21 8 -5 22 -3 36 6 26 17 37 41 24 49 -5 3 -7 12 -3 20 5 16 1 20
-10 8z"/>
<path d="M2980 5761 c0 -11 21 -19 38 -14 21 8 13 23 -13 23 -14 0 -25 -4 -25
-9z"/>
<path d="M2935 5740 c-3 -5 -4 -10 -1 -10 2 0 11 -3 20 -6 11 -4 16 -1 16 10
0 18 -25 22 -35 6z"/>
<path d="M10720 5735 c0 -9 6 -12 15 -9 8 4 12 10 9 15 -8 14 -24 10 -24 -6z"/>
<path d="M2635 5715 c46 -33 49 -38 29 -46 -18 -7 -18 -8 2 -8 11 -1 25 -6 32
-13 26 -26 4 24 -28 64 -8 10 -24 18 -35 18 -20 -1 -20 -1 0 -15z"/>
<path d="M3011 5712 c-15 -28 -14 -32 8 -32 27 0 33 13 17 35 -13 18 -14 18
-25 -3z"/>
<path d="M3368 5713 c7 -3 16 -2 19 1 4 3 -2 6 -13 5 -11 0 -14 -3 -6 -6z"/>
<path d="M2772 5693 c-6 -12 -12 -28 -12 -36 0 -8 -10 -18 -22 -22 -21 -6 -21
-7 9 -15 18 -4 41 -17 50 -28 13 -15 23 -18 38 -12 19 7 18 9 -7 19 -27 10
-35 27 -40 86 -3 29 -3 29 -16 8z"/>
<path d="M2910 5675 c7 -9 15 -13 17 -11 7 7 -7 26 -19 26 -6 0 -6 -6 2 -15z"/>
<path d="M3113 5668 c-2 -16 1 -17 13 -8 17 15 17 17 1 23 -8 3 -14 -3 -14
-15z"/>
<path d="M3010 5643 c0 -13 5 -23 10 -23 13 0 13 11 0 30 -8 12 -10 11 -10 -7z"/>
<path d="M2955 5630 c-3 -5 -17 -10 -31 -10 -15 0 -24 -6 -24 -16 0 -11 5 -14
16 -10 9 3 27 9 40 12 25 6 31 18 15 29 -5 3 -12 1 -16 -5z"/>
<path d="M3231 5621 c-8 -5 -20 -7 -28 -4 -7 3 -13 0 -13 -7 0 -7 -7 -10 -15
-6 -16 6 -21 -9 -6 -18 14 -9 111 18 108 29 -5 14 -29 17 -46 6z"/>
<path d="M3125 5610 c4 -6 11 -8 16 -5 14 9 11 15 -7 15 -8 0 -12 -5 -9 -10z"/>
<path d="M3975 5600 c-3 -5 -1 -10 4 -10 6 0 11 5 11 10 0 6 -2 10 -4 10 -3 0
-8 -4 -11 -10z"/>
<path d="M10650 5590 c0 -5 5 -10 10 -10 6 0 10 5 10 10 0 6 -4 10 -10 10 -5
0 -10 -4 -10 -10z"/>
<path d="M2752 5561 c4 -13 18 -16 19 -4 0 4 -5 9 -11 12 -7 2 -11 -2 -8 -8z"/>
<path d="M3215 5550 c-3 -5 -1 -10 4 -10 6 0 11 5 11 10 0 6 -2 10 -4 10 -3 0
-8 -4 -11 -10z"/>
<path d="M1935 2121 c-8 -15 3 -31 21 -31 9 0 14 7 12 17 -4 20 -24 28 -33 14z"/>
<path d="M2223 2062 c-41 -17 -83 -48 -83 -62 0 -25 105 -3 173 35 15 9 33 13
40 9 6 -4 5 0 -3 8 -24 25 -80 29 -127 10z"/>
<path d="M1980 2003 c-15 -19 -20 -35 -16 -53 4 -14 9 -42 13 -63 3 -21 12
-41 19 -44 8 -3 35 9 61 26 26 18 58 34 70 37 31 8 29 22 -4 29 -55 11 -78 29
-81 63 -4 41 -32 43 -62 5z"/>
</g>
</svg>
